<?xml version="1.0" standalone="no"?>
<!DOCTYPE svg PUBLIC "-//W3C//DTD SVG 1.1//EN" "http://www.w3.org/Graphics/SVG/1.1/DTD/svg11.dtd" >
<svg xmlns="http://www.w3.org/2000/svg">
<metadata></metadata>
<defs>
<font id="EricssonCapitalTTRegular" horiz-adv-x="1486" >
<font-face units-per-em="2048" ascent="1536" descent="-512" />
<missing-glyph horiz-adv-x="614" />
<glyph horiz-adv-x="0" />
<glyph horiz-adv-x="2048" />
<glyph unicode="&#xd;" horiz-adv-x="614" />
<glyph unicode=" "  horiz-adv-x="614" />
<glyph unicode="&#x09;" horiz-adv-x="614" />
<glyph unicode="&#xa0;" horiz-adv-x="614" />
<glyph unicode="!" horiz-adv-x="430" d="M143 74v92q0 31 21.5 52.5t51.5 21.5t50.5 -21.5t20.5 -52.5v-92q0 -31 -20.5 -52.5t-50.5 -21.5t-51.5 22.5t-21.5 51.5zM143 1360q0 31 21.5 52.5t51.5 21.5t50.5 -21.5t20.5 -52.5l-8 -832q0 -29 -18.5 -47t-45.5 -18t-45 19.5t-18 45.5z" />
<glyph unicode="&#x22;" horiz-adv-x="696" d="M143 1090v270q0 31 21.5 52.5t51.5 21.5t50.5 -21.5t20.5 -52.5v-270q0 -31 -20.5 -52.5t-50.5 -21.5t-51.5 21.5t-21.5 52.5zM410 1090v270q0 31 21.5 52.5t51 21.5t50 -21.5t20.5 -52.5v-270q0 -31 -20.5 -52.5t-50.5 -21.5t-51 21.5t-21 52.5z" />
<glyph unicode="#" horiz-adv-x="1331" d="M123 504q0 29 20.5 49t51.5 20h161l103 314h-121q-31 0 -51.5 21.5t-20.5 49.5q0 29 20.5 49.5t51.5 20.5h166l123 369q10 29 36.5 44t54.5 5t41 -38t3 -56l-107 -324h213l123 369q10 29 37 44t54.5 5t41 -38t2.5 -56l-106 -324h117q31 0 51 -20.5t20 -49.5t-21.5 -50 t-49.5 -21h-164l-58 -172q-10 -29 -34.5 -43.5t-53.5 -3.5q-29 10 -42 37.5t-3 54.5l41 127h-215l-102 -314h487q31 0 51.5 -20.5t20.5 -48.5q0 -29 -21.5 -50.5t-50.5 -21.5h-170l-129 -397q-10 -29 -35.5 -43.5t-54.5 -3.5q-29 10 -42 37.5t-3 54.5l115 352h-215 l-129 -397q-10 -29 -36 -43.5t-54 -3.5q-29 10 -42.5 37.5t-2.5 54.5l114 352h-114q-31 0 -51.5 21.5t-20.5 50.5z" />
<glyph unicode="$" horiz-adv-x="1247" d="M143 234.5q0 36.5 22.5 56.5t47 20t52.5 -18.5t64 -41t81 -40.5t101 -29.5t131 -11.5t128 11.5t90 32.5q67 39 96 116q18 45 58 45q82 0 82 -74q0 -16 -6 -29q-94 -223 -402 -239v-146q0 -29 -18.5 -49t-46 -20t-47 20.5t-19.5 48.5v150q-212 18 -381 141 q-33 20 -33 56.5zM156 1032q0 155 110 255t291 112v145q0 29 19.5 49.5t47.5 20.5t46 -20.5t18 -49.5v-147q184 -20 295 -109q27 -23 27 -55.5t-21.5 -52t-44 -19.5t-34.5 7l-23 14q-131 82 -277 82q-167 0 -246 -74q-63 -58 -63 -134.5t21.5 -115.5t61.5 -64 q59 -38 187.5 -66.5t206.5 -48.5t140 -49q131 -59 178 -173q6 -12 6 -40t-21.5 -47.5t-48.5 -19.5q-51 0 -71 49t-48 76t-74 44t-115 31.5t-169 37.5q-205 47 -302 129t-97 233z" />
<glyph unicode="%" horiz-adv-x="1490" d="M80 1102q0 168 97 265q85 85 208 85q122 0 208 -84q85 -83 93 -199q4 -37 4 -65q0 -138 -57.5 -216.5t-122.5 -107.5q-35 -16 -60.5 7.5t-25.5 48.5q0 52 36 72q80 43 87 139q4 35 4 57q0 119 -54.5 165t-112.5 46t-104.5 -42t-52.5 -96.5t-6 -78t3 -60t30 -73.5t47 -49 q49 -31 49 -70t-28.5 -60.5t-59.5 -5.5q-182 91 -182 322zM214 190q-1 31 17 50l936 1056q23 23 51.5 25t50.5 -16t22.5 -47t-17.5 -52l-936 -1056q-20 -23 -49 -25t-51 16q-23 18 -24 49zM803 332q0 168 97 265q85 85 208 85q122 0 208 -84q85 -83 93 -199q4 -37 4 -65 q0 -138 -57.5 -216.5t-122.5 -107.5q-35 -16 -60.5 7.5t-25.5 48.5q0 52 36 72q80 43 87 138q4 35 4 58q0 119 -54.5 165t-112.5 46t-104.5 -42t-52.5 -96.5t-6 -78t3 -60.5t30 -73.5t47 -48.5q49 -31 49 -70t-28.5 -60.5t-59.5 -5.5q-182 91 -182 322z" />
<glyph unicode="&#x26;" horiz-adv-x="1310" d="M104 383q0 172 115 269.5t371 164.5q254 67 268 195q4 37 4 75q0 82 -60 145q-60 64 -173 64q-236 0 -236 -209q0 -71 58 -135q25 -29 24 -57q0 -29 -27.5 -48.5t-49.5 -19.5q-40 0 -69 37q-85 112 -85 252t101 231t284 91q182 0 282.5 -96.5t100.5 -254.5 q0 -150 -74 -236q-91 -105 -315 -167q-211 -58 -291 -123t-80 -181t102.5 -187.5t286.5 -71.5q95 0 190 59q-141 114 -282 305q-39 58 2 103q20 23 52 26.5t50 -20.5q68 -92 135.5 -173t149.5 -149q89 97 106 209q8 63 19.5 99t57.5 36t56.5 -39.5t6.5 -103.5 q-28 -162 -137 -285q29 -18 56 -36.5t56 -34.5t28 -48t-20.5 -55t-49 -24.5t-52.5 18.5q-51 33 -123 84q-146 -106 -288 -108t-242.5 27.5t-167.5 84.5q-140 115 -140 287z" />
<glyph unicode="'" horiz-adv-x="430" d="M143 1090v270q0 31 21.5 52.5t51.5 21.5t50.5 -21.5t20.5 -52.5v-270q0 -31 -20.5 -52.5t-50.5 -21.5t-51.5 21.5t-21.5 52.5z" />
<glyph unicode="(" horiz-adv-x="714" d="M174 705q0 423 234 763q79 113 184 209q27 23 55.5 17t43.5 -29t12 -47.5t-21 -40.5q-275 -257 -346 -633q-23 -118 -23 -239q0 -382 207 -685q70 -102 162 -188q18 -16 21.5 -40.5t-12 -47.5t-44.5 -29t-55 17q-312 288 -392 705q-26 132 -26 268z" />
<glyph unicode=")" horiz-adv-x="714" d="M11.5 -208.5q2.5 24.5 21.5 40.5q270 253 345 632q23 120 23 241q0 377 -207 685q-69 101 -161 187q-18 16 -21.5 40.5t11.5 47.5q16 23 44.5 29t55.5 -17q304 -281 391 -705q27 -132 27 -267q0 -420 -236 -763q-78 -114 -182 -210q-27 -23 -55.5 -17t-44.5 29 q-14 23 -11.5 47.5z" />
<glyph unicode="*" horiz-adv-x="784" d="M84 1217.5q-8 25.5 5 49.5t40 30t49 -9l158 -98l-6 178q0 29 18.5 47.5t46 18.5t45 -18.5t17.5 -47.5l-4 -242l217 -122q23 -12 32 -38t-6 -48q-14 -23 -39.5 -28t-48.5 7l-157 96l6 -182q0 -27 -17.5 -45t-45.5 -18t-46 18t-18 45l4 246l-217 121q-25 14 -33 39.5z M85 965.5q7 25.5 30 38.5l65 36q23 12 50.5 7t39.5 -29q12 -25 4 -50.5t-30 -37.5l-66 -35q-23 -14 -49.5 -7t-38.5 32q-12 20 -5 45.5zM511 1211q7 26 30 38l67 37q23 12 50.5 7t39.5 -29q12 -25 4 -50.5t-30 -37.5l-68 -35q-23 -14 -49.5 -7t-38.5 29t-5 48z" />
<glyph unicode="+" horiz-adv-x="1284" d="M123 718q0 30 21.5 50t52.5 20h376v377q0 31 21.5 52.5t51.5 21.5t50.5 -21.5t20.5 -52.5v-377h373q31 0 52 -20t21 -50t-22.5 -51.5t-50.5 -21.5h-373v-377q0 -31 -20.5 -52t-50.5 -21t-51.5 22.5t-21.5 50.5v377h-376q-31 0 -52.5 21.5t-21.5 51.5z" />
<glyph unicode="," horiz-adv-x="430" d="M96 -145.5q-12 30.5 3 58.5t23.5 47.5t12.5 37.5q8 36 8 84v72q0 31 21.5 52t51.5 21t50.5 -21.5t20.5 -51.5v-80q0 -109 -56 -219q-10 -29 -37.5 -40.5t-56.5 -0.5q-29 10 -41 40.5z" />
<glyph unicode="-" horiz-adv-x="843" d="M184 718q0 30 21.5 50t52.5 20h328q31 0 52 -20t21 -50t-22.5 -51.5t-50.5 -21.5h-328q-31 0 -52.5 21.5t-21.5 51.5z" />
<glyph unicode="." horiz-adv-x="430" d="M143 74v92q0 31 21.5 52.5t51.5 21.5t50.5 -21.5t20.5 -52.5v-92q0 -31 -20.5 -52.5t-50.5 -21.5t-51.5 22.5t-21.5 51.5z" />
<glyph unicode="/" horiz-adv-x="698" d="M4 31l563 1423q10 29 38 40t54.5 1t37 -36.5t-0.5 -55.5l-563 -1423q-10 -27 -36.5 -38.5t-53.5 -0.5q-27 10 -38 37.5t-1 52.5z" />
<glyph unicode="0" horiz-adv-x="1417" d="M174 717q0 129 7 219t48 190.5t110 173.5q145 152 370 152q231 0 373 -152q139 -150 155 -393q6 -123 6 -182q0 -76 -6 -199q-16 -215 -121.5 -347t-265.5 -179q-10 -4 -20 -4h-19q-27 0 -47.5 19.5t-20.5 46t17.5 46t40.5 23.5q123 29 199 130q100 134 100 456 q0 106 -8 188q-16 186 -109.5 298t-272.5 112t-273.5 -111.5t-110.5 -298.5q-9 -92 -9 -166q0 -119 9 -211q16 -166 91 -267t199 -130q23 -4 40.5 -23.5t17.5 -46.5t-20.5 -46t-39.5 -19h-27q-9 0 -20 4q-162 47 -266 179q-120 153 -126 437q-1 50 -1 101z" />
<glyph unicode="1" horiz-adv-x="919" d="M112 1171.5q9 28.5 33 45.5l369 206q55 27 90 -11q21 -21 21 -52v-1286q0 -31 -20.5 -52.5t-50.5 -21.5t-51.5 22.5t-21.5 51.5v1165l-264 -147q-29 -16 -56.5 -9t-43.5 33q-14 27 -5 55.5z" />
<glyph unicode="2" horiz-adv-x="1196" d="M123 117.5q0 59.5 18.5 118.5t57.5 116q72 106 219 214t231 170.5t134.5 112.5t70.5 99t20 103.5t-16 99.5t-51 81q-79 81 -234 81q-111 0 -188.5 -45t-108 -87.5t-58.5 -51.5t-54.5 4.5t-36.5 45.5t12.5 64.5t63.5 70.5t95 68q123 70 252.5 70t214.5 -30.5t143 -83.5 q114 -107 114 -275q0 -159 -106 -279q-54 -61 -140 -127.5t-187.5 -139t-157.5 -120t-91 -88.5q-68 -80 -68 -166h707q31 0 52.5 -21.5t21.5 -51t-21.5 -50t-52.5 -20.5l-746 2q-47 0 -78.5 28t-31.5 87.5z" />
<glyph unicode="3" horiz-adv-x="1204" d="M92 1363q0 30 21.5 50.5t52.5 20.5h665q47 0 81 -30t34 -72t-24 -75l-324 -352q189 8 310 -101q122 -111 122 -288q0 -262 -230 -402q-236 -142 -630 -118q-33 0 -53.5 19.5t-22.5 49t19.5 53t52.5 19.5q324 -24 521 75q200 101 200 302q0 125 -84 194.5t-213 69.5 q-63 0 -91 -7t-55 -7t-48 20.5t-21 49.5t20 49l369 407h-598q-31 0 -52.5 21.5t-21.5 51.5z" />
<glyph unicode="4" horiz-adv-x="1357" d="M123 481q0 53 37 92l604 789q59 72 121.5 72t97.5 -39t35 -95v-808h162q29 0 49 -19.5t20 -49.5t-20.5 -49.5t-48.5 -19.5h-162v-280q0 -29 -21.5 -51.5t-51.5 -22.5t-50.5 21.5t-20.5 52.5v1198l-595 -774h444q31 0 52.5 -20.5t21.5 -50.5t-22.5 -51.5t-51.5 -21.5h-467 q-55 0 -94 35t-39 92z" />
<glyph unicode="5" horiz-adv-x="1234" d="M156 58.5q-2 29.5 19.5 52t51.5 20.5q333 -13 527 95q204 113 204 323q0 111 -82 183q-80 71 -210 71q-162 0 -291 -65q-31 -15 -56.5 -28t-49 -12.5t-39.5 12.5q-35 24 -35 70l2 527q0 72 39.5 97.5t91.5 25.5l614 4q31 0 52.5 -20.5t21.5 -50.5t-22.5 -51.5 t-51.5 -21.5h-610v-432q61 33 138 58.5t184.5 25.5t188.5 -29.5t138 -82t89 -124t32 -182t-61.5 -218t-174.5 -180.5q-237 -152 -635 -136q-33 0 -53 19.5t-22 49z" />
<glyph unicode="6" horiz-adv-x="1361" d="M176 692q12 427 240 621q221 188 618 137q72 -10 72 -72q0 -35 -24.5 -54t-57.5 -15q-348 36 -520 -109q-88 -74 -139 -216q-58 -164 -41 -468q12 -205 108 -298t277.5 -93t267.5 90t86 247t-82 231.5t-272 74.5q-83 0 -201 -27q-31 -8 -56.5 6.5t-31.5 43.5t11.5 51 t58.5 35q93 30 219 30q246 0 372.5 -110.5t126.5 -325.5q0 -204 -128 -339q-140 -146 -379.5 -146t-371.5 135q-166 170 -153 571z" />
<glyph unicode="7" horiz-adv-x="1071" d="M74 1365q0 30 21.5 49.5t51.5 19.5h758q49 0 81 -28t32 -60q0 -46 -25 -89q-311 -521 -390 -678q-143 -284 -197 -524q-10 -43 -45 -54t-61 5q-46 28 -26 98q68 247 197 505q107 214 387 685h-711q-31 0 -52 20.5t-21 50.5z" />
<glyph unicode="8" horiz-adv-x="1388" d="M164 380q0 156 74.5 247.5t185.5 122.5v2q-98 29 -161.5 104.5t-63.5 216.5t88 236.5t264 130.5q20 4 46 4t46.5 -19.5t20.5 -46.5t-17.5 -45t-40.5 -22q-129 -16 -196.5 -76.5t-67.5 -172.5t93 -177.5t258.5 -65.5t255 67.5t91.5 184.5q0 205 -258 240q-23 4 -40 22.5 t-17 45t20.5 46t38.5 19.5q32 0 54 -4q170 -33 258 -131.5t89 -228.5t-60.5 -208.5t-157.5 -117.5v-2q111 -31 179 -122t79 -237q0 -167 -110 -273q-119 -115 -299 -129q-13 -1 -31.5 -1t-39 19.5t-20.5 46t17.5 47t39.5 24.5q207 26 274 162q23 45 23 104 q-2 127 -104.5 205t-290.5 78t-280.5 -78t-92.5 -202t84 -189.5t211 -81.5q23 -4 40.5 -23.5t17.5 -46.5t-20.5 -46t-39.5 -19q-33 0 -85 8t-122.5 40t-122.5 82q-110 104 -110 260z" />
<glyph unicode="9" horiz-adv-x="1349" d="M154 971q0 203 128 339q137 146 373 146t368 -131q149 -148 153 -465q3 -296 -59 -454t-169 -247q-202 -169 -631 -169q-31 -4 -52 17.5t-23 51t19.5 52t51.5 22.5q176 0 308.5 27.5t221.5 98.5t140 204q66 169 41 485q-20 369 -375 369q-180 0 -265 -89t-85 -247 t80 -232.5t268 -74.5q75 0 195 26q31 8 56.5 -6t31.5 -43t-11.5 -51t-58.5 -36q-90 -29 -213 -29q-246 0 -369.5 110.5t-123.5 325.5z" />
<glyph unicode=":" horiz-adv-x="573" d="M215 74v92q0 31 21.5 52.5t51.5 21.5t50 -21.5t20 -52.5v-92q0 -31 -20.5 -52.5t-50 -21.5t-51 22.5t-21.5 51.5zM215 776v92q0 31 21.5 52.5t51.5 21.5t50 -21.5t20 -52.5v-92q0 -31 -20.5 -52.5t-50 -21.5t-51 23t-21.5 51z" />
<glyph unicode=";" horiz-adv-x="606" d="M200.5 -145.5q-12.5 30.5 3 58.5t24 47.5t12.5 37.5q8 36 8 84v72q0 31 21.5 52t51 21t50 -21.5t20.5 -51.5v-80q0 -111 -55 -219q-10 -29 -38 -40.5t-56 -0.5q-29 10 -41.5 40.5zM248 776v92q0 31 21.5 52.5t51 21.5t50 -21.5t20.5 -52.5v-92q0 -31 -20.5 -52.5 t-50.5 -21.5t-51 23t-21 51z" />
<glyph unicode="&#x3c;" horiz-adv-x="989" d="M102 717q0 74 88 147l566 459q25 20 54.5 17t48.5 -25.5t15 -53t-26 -49.5l-582 -467q-18 -12 -18 -28q0 -17 18 -29l582 -467q23 -18 27 -49t-15.5 -53.5t-49.5 -25.5t-54 18l-566 458q-88 73 -88 148z" />
<glyph unicode="=" horiz-adv-x="1286" d="M135 540q0 30 21.5 50t52.5 20h866q31 0 52.5 -20.5t21.5 -50t-22.5 -51t-51.5 -21.5h-866q-31 0 -52.5 21.5t-21.5 51.5zM135 898q0 30 21.5 50.5t52.5 20.5h866q31 0 52.5 -20.5t21.5 -50.5t-22.5 -51.5t-51.5 -21.5h-866q-31 0 -52.5 21.5t-21.5 51.5z" />
<glyph unicode="&#x3e;" horiz-adv-x="989" d="M114.5 1261q-3.5 31 15.5 54t49 25.5t54 -17.5l566 -459q88 -73 88 -147q0 -75 -88 -148l-566 -458q-25 -20 -54 -17.5t-48.5 25.5t-15.5 53.5t26 48.5l582 467q18 12 18 29q0 16 -18 28l-582 467q-23 18 -26.5 49z" />
<glyph unicode="?" horiz-adv-x="1144" d="M123 1204.5q0 26.5 29.5 63t71.5 73.5t94 61q107 50 231.5 50t201 -28.5t131.5 -81.5q119 -112 119 -279q0 -189 -107 -305q-92 -99 -327 -207q-29 -12 -54.5 -12t-47 19.5t-21.5 47.5q0 51 52 74q214 94 283 167q79 83 79 205t-72.5 191.5t-205.5 69.5 q-125 0 -179.5 -26.5t-85 -55.5t-58.5 -64t-59.5 -34.5t-53 23t-21.5 49zM446 74v92q0 31 21.5 52.5t51.5 21.5t50.5 -21.5t20.5 -52.5v-92q0 -31 -20.5 -52.5t-50.5 -21.5t-51.5 22.5t-21.5 51.5z" />
<glyph unicode="@" horiz-adv-x="1611" d="M164 694q0 114 8 170q20 256 200 423q182 169 437 169q265 0 449 -171q190 -175 190 -449v-273q0 -93 -64 -159t-159 -66q-93 0 -160 66q-68 66 -68 159v209q0 81 -53 134q-55 55 -133 55q-80 0 -135 -55q-53 -53 -53 -134v-117q0 -59 33.5 -108t91.5 -70q51 -19 51 -69 q0 -29 -21.5 -48.5t-46.5 -19.5t-45 8q-86 41 -145.5 123t-59.5 184v117q0 130 98 232q93 96 232 96q137 0 230 -96q98 -102 98 -232v-213q0 -35 24.5 -59.5t59.5 -24.5t59.5 24.5t24.5 59.5v277q0 217 -147 352q-140 127 -351 127q-198 0 -335 -129q-135 -126 -157 -328 q-8 -78 -8 -160q0 -216 59 -328q85 -160 241 -222q81 -33 163 -33t149.5 14t127.5 74q20 20 53 20t51 -22.5t18 -44.5t-8 -39l2 2q-4 -4 -4 -6t-2 -2l4 6q-80 -82 -175 -108.5t-212.5 -26.5t-225.5 43t-188 117q-163 151 -188 384q-10 98 -10 168z" />
<glyph unicode="A" horiz-adv-x="1470" d="M57 98l488 1225q23 57 74 93t116 36q66 0 117 -36t74 -93l209 -526q10 -27 -1.5 -55.5t-39.5 -39.5q-29 -10 -56.5 1.5t-38.5 39.5l-208 529q-14 37 -56 37q-41 0 -55 -37l-252 -637h604q167 0 221 -135l160 -402q5 -13 5 -26q0 -16 -6 -30q-11 -28 -40 -38 q-14 -5 -27 -5q-15 0 -29 6q-28 11 -38 40l-160 401q-18 47 -67 48h-680l-178 -449q-10 -29 -38 -40q-15 -6 -30 -6q-14 0 -27 5q-29 10 -40 39q-6 15 -6 30q0 13 5 25z" />
<glyph unicode="B" horiz-adv-x="1380" d="M215 74v1233q0 53 33 90t96 37h465q192 0 303 -111q105 -105 105 -253t-57.5 -223t-137.5 -102v-2q111 -27 173 -115.5t62 -210.5t-33.5 -200t-91.5 -126q-111 -91 -298 -91h-345q-31 0 -52 21.5t-21 51.5t21.5 49t51.5 19h324q297 0 297 267q0 127 -76 194.5t-196 67.5 h-480v-596q0 -29 -21.5 -51.5t-49.5 -22.5q-29 0 -50.5 22.5t-21.5 51.5zM358 813h447q266 0 266 241q0 240 -264 240h-2h-447v-481z" />
<glyph unicode="C" horiz-adv-x="1384" d="M145 610q0 35 21.5 56.5t50.5 21.5t50.5 -18.5t21.5 -53.5q4 -213 129 -352q127 -143 340 -143q116 0 217.5 69.5t148.5 186.5q21 47 68 47q25 0 47.5 -19.5t22.5 -42t-7 -36.5q-61 -153 -199 -249q-138 -95 -291 -95t-263.5 50t-190.5 135q-166 177 -166 431v12z M145 823v11q0 123 42 233q44 115 124 200t190.5 135t219 50t188.5 -24.5t147 -70.5q139 -96 199 -249q8 -20 8 -36q1 -24 -17 -38q-28 -24 -55 -24q-45 0 -67 47q-47 117 -148.5 186.5t-218 69.5t-198.5 -38t-141 -105q-125 -139 -129 -353q0 -35 -21.5 -53.5t-50.5 -18.5 t-50.5 21.5t-21.5 56.5z" />
<glyph unicode="D" d="M215 74v1233q0 53 33 90t96 37h361q295 0 465 -172q156 -158 169 -435q3 -56 3 -113.5t-3 -117.5q-6 -120 -49 -232t-122 -193q-165 -171 -463 -171h-220q-31 0 -52 21.5t-21 51.5t21.5 50t51.5 20h217q353 0 456 274q41 109 41 297q0 53 -3 113q-19 337 -280 431 q-91 32 -214 32h-344v-1216q0 -31 -20.5 -52.5t-50 -21.5t-51 22.5t-21.5 51.5z" />
<glyph unicode="E" horiz-adv-x="1288" d="M215 127v463q0 84 61 144q58 59 142 59h633q31 0 52 -19.5t21 -49.5t-22.5 -51.5t-50.5 -21.5h-631q-27 0 -44.5 -17.5t-17.5 -43.5v-447h713q29 0 51.5 -21.5t22.5 -51t-21.5 -50t-52.5 -20.5h-727q-63 0 -96 37t-33 90zM215 893v414q0 53 33 90t96 37h723 q31 0 52.5 -20.5t21.5 -50.5t-22.5 -51.5t-51.5 -21.5h-709v-397q0 -31 -20.5 -52.5t-50 -21.5t-51 22.5t-21.5 51.5z" />
<glyph unicode="F" horiz-adv-x="1222" d="M215 74v487q0 86 59.5 145.5t145.5 59.5h610q31 0 52.5 -20.5t21.5 -50.5t-22.5 -51t-51.5 -21h-610q-27 0 -44.5 -17.5t-17.5 -44.5v-487q0 -31 -20.5 -52.5t-50 -21.5t-51 22.5t-21.5 51.5zM215 860v447q0 53 33 90t96 37h723q31 0 52.5 -20.5t21.5 -50.5t-22.5 -51.5 t-51.5 -21.5h-709v-430q0 -31 -20.5 -52.5t-50 -21.5t-51 22.5t-21.5 51.5z" />
<glyph unicode="G" horiz-adv-x="1435" d="M148 860q10 142 58 246t127 181q169 165 410 165q174 0 310.5 -87t206.5 -237q6 -16 6 -37.5t-21.5 -43t-47.5 -21.5q-43 0 -69 43q-53 113 -153.5 178.5t-212 65.5t-190 -33t-136.5 -90q-125 -121 -141 -297q-9 -101 -9 -184q0 -62 5 -115q12 -123 40.5 -194.5 t76.5 -127.5q104 -118 249 -145q23 -4 40.5 -23.5t17.5 -46.5t-20.5 -46t-38.5 -19q-101 0 -201.5 61.5t-160.5 134.5q-128 153 -142 341q-8 110 -8 204q0 67 4 127zM760 685q0 30 21.5 50.5t52.5 20.5h329q63 0 96 -37t33 -90v-142q0 -177 -110 -313q-118 -143 -303 -178 q-20 -4 -43 -4t-43.5 19.5t-20.5 46t17.5 46t39.5 23.5q144 25 231 116q89 93 89 228v141h-315q-31 0 -52.5 21.5t-21.5 51.5z" />
<glyph unicode="H" horiz-adv-x="1570" d="M215 74v1286q0 31 21.5 52.5t51.5 21.5t50 -21.5t20 -52.5v-1286q0 -31 -20.5 -52.5t-50 -21.5t-51 22.5t-21.5 51.5zM414 718q0 30 21.5 50t51.5 20h725v572q0 31 21.5 52.5t51.5 21.5t50.5 -21.5t20.5 -52.5v-1286q0 -31 -20.5 -52.5t-50.5 -21.5t-51.5 22.5 t-21.5 51.5v571h-725q-31 0 -52 21.5t-21 51.5z" />
<glyph unicode="I" horiz-adv-x="573" d="M215 74v1286q0 31 21.5 52.5t51.5 21.5t50 -21.5t20 -52.5v-1286q0 -31 -20.5 -52.5t-50 -21.5t-51 22.5t-21.5 51.5z" />
<glyph unicode="J" horiz-adv-x="1005" d="M41 237.5q0 22.5 21.5 44t56.5 21.5t64.5 -51t86 -90t120.5 -39t110.5 17.5t81.5 53.5q75 77 75 218v948q0 31 21.5 52.5t51.5 21.5t50.5 -21.5t20.5 -52.5v-965q0 -176 -117 -299q-109 -114 -281 -114q-117 0 -213 60t-143 159q-6 14 -6 36.5z" />
<glyph unicode="K" horiz-adv-x="1394" d="M215 74v1286q0 31 21.5 52.5t51.5 21.5t50 -21.5t20 -52.5v-574h236q175 0 264 -116l428 -555q17 -24 17 -47q0 -29 -29 -54q-19 -15 -42 -15q-4 0 -10 1q-30 4 -48 27l-435 555q-50 67 -143 67h-238v-575q0 -31 -20.5 -52.5t-50 -21.5t-51 22.5t-21.5 51.5zM764 853 q-1 5 -1 10q0 22 15 42l391 498q18 23 48 29q7 1 14 1q22 -1 40 -15q24 -20 28 -47q1 -5 1 -10q0 -23 -16 -42l-391 -498q-18 -23 -48 -29q-7 -1 -14 -1q-21 1 -39 15q-24 20 -28 47z" />
<glyph unicode="L" horiz-adv-x="1144" d="M215 127v1233q0 31 21.5 52.5t51.5 21.5t50 -21.5t20 -52.5v-1217h693q29 0 51 -21.5t22 -51t-21.5 -50t-51.5 -20.5h-707q-63 0 -96 37t-33 90z" />
<glyph unicode="M" horiz-adv-x="2009" d="M135 88l215 1221q27 143 158 143q59 0 102 -34t60 -93l313 -1167q6 -23 23 -23q18 0 24 23l307 1167q16 59 59.5 93t102.5 34q129 0 158 -143l217 -1221q1 -7 1 -14q1 -20 -9 -40q-12 -26 -46 -34q-11 -3 -20 -3q-20 -1 -38 11q-26 16 -29 47l-211 1235q-6 23 -23.5 23 t-23.5 -21l-314 -1149q-37 -143 -156.5 -143t-158.5 143l-314 1149q-6 20 -20 20q-21 1 -27 -22l-209 -1235q-4 -31 -30 -47q-17 -11 -37 -11q-10 0 -21 3q-54 13 -54 69q0 9 1 19z" />
<glyph unicode="N" horiz-adv-x="1605" d="M215 74v1226q0 55 35 94.5t100.5 39.5t116.5 -72l344 -522q12 -18 12 -43t-21.5 -46.5t-54 -21.5t-55.5 33l-336 514h-4q6 -183 6 -301v-901q0 -31 -20.5 -52.5t-50 -21.5t-51 22.5t-21.5 51.5zM791 639q0 25 21.5 46.5t53 21.5t56.5 -35l329 -504h4q-8 244 -8 293v899 q0 31 21.5 52.5t51.5 21.5t50.5 -21.5t20.5 -52.5v-1233q0 -53 -34 -90t-78 -37q-83 0 -128 68l-348 528q-12 18 -12 43z" />
<glyph unicode="O" d="M150 551q-7 92 -7 172q0 247 63 383q98 213 310 302q105 44 227 44q242 0 411 -165q167 -162 183 -404q7 -95 7 -177q0 -224 -52 -354q-73 -182 -235 -282q-119 -74 -211 -74q-27 0 -47.5 19.5t-20.5 46t17.5 46t40.5 23.5q148 27 244 143q96 117 112 280q9 93 9 175 q0 61 -5 116q-12 128 -49 208t-95 137q-127 123 -309 123q-181 0 -307 -123q-125 -121 -141 -297q-9 -101 -10 -184q0 -62 6 -115q12 -123 39.5 -193.5t73.5 -126.5q98 -115 247 -143q23 -4 40.5 -23.5t17.5 -46.5t-20.5 -46t-38.5 -19q-101 0 -200.5 61.5t-159.5 132.5 q-124 147 -140 361z" />
<glyph unicode="P" horiz-adv-x="1316" d="M215 74v1233q0 53 33 90t96 37h414q191 0 320 -116q136 -121 136 -325q0 -208 -134 -329q-127 -115 -339 -115h-254q-33 0 -54 20.5t-21 51.5t21.5 50t53.5 19h254q248 0 307 178q19 56 19 123q0 135 -77 219t-238 84h-394v-1220q0 -29 -21.5 -51.5t-49.5 -22.5 q-29 0 -50.5 22.5t-21.5 51.5z" />
<glyph unicode="Q" d="M150 551q-7 92 -7 172q0 247 63 383q98 213 310 302q105 44 227 44q242 0 411 -165q167 -162 183 -404q7 -91 7 -171q0 -248 -64 -386q-47 -101 -125 -176l125 -156q18 -25 14 -52.5t-28 -46.5q-18 -15 -42 -15h-12q-30 5 -47 30l-123 151q-116 -65 -196 -65 q-27 0 -47.5 19.5t-20.5 46t17.5 46t40.5 23.5q148 27 244 143q96 117 112 280q9 93 9 175q0 61 -5 116q-12 128 -49 208t-95 137q-127 123 -309 123q-181 0 -307 -123q-125 -121 -141 -297q-9 -101 -9 -184q0 -62 5 -115q12 -123 39.5 -193.5t73.5 -126.5q98 -115 247 -143 q23 -4 40.5 -23.5t17.5 -46.5t-20.5 -46t-38.5 -19q-101 0 -200.5 61.5t-159.5 132.5q-124 147 -140 361z" />
<glyph unicode="R" horiz-adv-x="1404" d="M215 74v1233q0 53 33 90t96 37h432q194 0 320 -111q137 -120 137 -339q0 -120 -61.5 -216t-165.5 -150q-14 -8 -39 -8t-46.5 20.5t-21.5 56.5t39 56q76 41 111.5 100.5t35.5 176t-76.5 195.5t-238.5 79h-412v-577h273q78 0 134 -27.5t105 -89.5l385 -483q15 -21 15 -48 v-5q-2 -30 -25 -48q-19 -19 -44 -19q-5 1 -9 1q-30 4 -49 27l-389 487q-52 66 -123 66h-273v-504q0 -29 -21.5 -51.5t-49.5 -22.5q-29 0 -50.5 22.5t-21.5 51.5z" />
<glyph unicode="S" horiz-adv-x="1273" d="M123 193.5q0 34.5 21.5 54.5t43.5 20q33 0 81.5 -36.5t151.5 -73.5t217.5 -37t184.5 21.5t114 55.5q87 69 87 179q0 101 -62 157q-62 57 -231 99q-23 6 -39 25.5t-16 48.5t26 52q18 16 44 16q11 0 24 -3q205 -47 303 -143.5t98 -251.5q0 -181 -143 -289 q-140 -106 -364 -106q-239 0 -424 98q-54 29 -85.5 54t-31.5 59.5zM135 1057q0 179 133 289q129 106 344 106q123 0 229.5 -31.5t172.5 -85.5q27 -23 27 -54q-1 -33 -23 -55q-22 -20 -43.5 -20t-34.5 8l-22 13q-142 86 -302 86q-177 0 -262 -76q-71 -64 -71 -176 q0 -100 62 -152t230 -94q23 -6 39.5 -25.5t16.5 -48.5q1 -29 -25 -52q-18 -16 -45 -16q-11 0 -24 3q-205 47 -303.5 136t-98.5 245z" />
<glyph unicode="T" horiz-adv-x="1220" d="M41 1363q0 30 21.5 50.5t52.5 20.5h991q31 0 52.5 -20.5t21.5 -50.5t-22.5 -51.5t-51.5 -21.5h-422v-1216q0 -31 -20.5 -52.5t-50.5 -21.5t-51 22.5t-21 51.5v1216h-426q-31 0 -52.5 21.5t-21.5 51.5z" />
<glyph unicode="U" horiz-adv-x="1531" d="M195 573v787q0 31 21.5 52.5t51 21.5t50 -21.5t20.5 -52.5v-780q0 -209 122 -336q116 -123 296 -123t297 104q18 18 47 19q29 0 50 -21.5t21 -52.5t-24 -51q-158 -137 -381 -137q-247 0 -408 164q-163 164 -163 427zM1147 328.5q0 21.5 4 33.5q43 94 43 218v780 q0 31 21.5 52.5t51.5 21.5t50 -21.5t20 -52.5v-787q0 -145 -53 -264q-18 -45 -56 -45t-59.5 21.5t-21.5 43z" />
<glyph unicode="V" horiz-adv-x="1396" d="M57 1335q-5 13 -5 25q0 14 6 30q12 28 40 40q13 5 27 5q15 -1 29 -7q28 -12 39 -39l479 -1252q8 -20 26 -20t27 20l479 1252q10 29 38 40q15 6 29 6l27 -5q28 -10 40 -39q6 -15 6 -29t-5 -27l-469 -1216q-57 -141 -172 -142q-115 0 -172 142z" />
<glyph unicode="W" horiz-adv-x="1972" d="M84 1343q-2 9 -2 18q0 17 8 35q12 26 43 36q11 3 21 3q18 -1 36 -11q26 -16 33 -44l287 -1269h4l340 1212q16 53 52 80t78 27t80 -27t52 -78l334 -1214h4l295 1269q9 28 33 44q16 10 35 11q10 0 21 -3q32 -8 43 -35q7 -17 7 -35q0 -10 -2 -19l-305 -1249 q-14 -55 -50 -83.5t-79 -28.5t-80 28.5t-53 81.5l-332 1202h-6l-340 -1202q-16 -53 -51 -81.5t-78 -28.5t-81 28.5t-50 83.5z" />
<glyph unicode="X" horiz-adv-x="1349" d="M79 1368q3 30 25.5 48.5t52 14.5t50.5 -26l467 -578l469 578q20 25 50 28h8q25 -1 45 -17q22 -20 25 -49.5t-18 -53.5l-487 -598l487 -598q19 -23 19 -50q0 -33 -26 -53q-21 -16 -46 -15h-8q-30 3 -49 26l-1047 1288q-17 22 -17 47v8zM80 65v6q0 25 18 48l398 489 q20 23 50 27q5 1 9 1q24 0 43 -16q23 -20 26 -50v-7q0 -25 -18 -47l-397 -489q-18 -23 -49 -26h-8q-26 0 -46 16q-24 19 -26 48z" />
<glyph unicode="Y" horiz-adv-x="1318" d="M36 1368q3 29 25.5 48t53 15t49.5 -26l495 -619l496 619q18 23 49 27q5 1 10 1q25 0 44 -17q22 -19 25 -49v-8q0 -25 -17 -46l-480 -590q-25 -31 -40 -52.5t-15 -64.5v-532q0 -31 -20.5 -52.5t-50.5 -21.5t-51 22.5t-21 51.5v532q0 43 -16.5 65.5t-41.5 53.5l-477 588 q-17 22 -17 47v8z" />
<glyph unicode="Z" horiz-adv-x="1196" d="M113 121q0 49 34 96l330 457q23 33 56 33t53 -21.5t20 -46t-12 -43.5l-326 -453h772q31 0 52.5 -21.5t21.5 -51t-21.5 -50t-52.5 -20.5h-788q-66 0 -102.5 36t-36.5 85zM121 1363q0 30 21.5 50.5t52.5 20.5h735q70 0 106.5 -36t36.5 -75q0 -61 -43 -119l-317 -442 q-23 -33 -56 -33t-54 21.5t-21 46t12 43.5l324 450h-723q-31 0 -52.5 21.5t-21.5 51.5z" />
<glyph unicode="[" horiz-adv-x="727" d="M195 -160v1729q0 53 32.5 90t96.5 37h309q31 0 52.5 -20.5t21.5 -50.5t-22.5 -51.5t-51.5 -21.5h-295v-1695h295q29 0 51.5 -21.5t22.5 -51.5t-21.5 -50.5t-52.5 -20.5h-309q-63 0 -96 37t-33 90z" />
<glyph unicode="\" horiz-adv-x="698" d="M-25 1462q-10 27 1.5 55.5t39.5 38.5q29 10 56.5 -1t38.5 -39l612 -1543q10 -29 -2 -57.5t-40 -38.5t-55.5 2t-37.5 41z" />
<glyph unicode="]" horiz-adv-x="727" d="M20 -216q0 30 23 51.5t51 21.5h295v1695h-295q-29 0 -51.5 21.5t-22.5 51.5t21.5 50.5t52.5 20.5h309q63 0 96 -37t33 -90v-1729q0 -53 -32.5 -90t-96.5 -37h-309q-31 0 -52.5 20.5t-21.5 50.5z" />
<glyph unicode="^" horiz-adv-x="1286" d="M330 811l190 492q57 141 172 141t172 -141l191 -492q10 -27 -1.5 -55.5t-39.5 -38.5q-29 -10 -56.5 1t-37.5 40l-201 526q-9 21 -27 21t-26 -21l-201 -526q-10 -29 -38 -40t-56 -1q-29 10 -40.5 38.5t-0.5 55.5z" />
<glyph unicode="_" horiz-adv-x="966" d="M0 -258h967v-143h-967v143z" />
<glyph unicode="`" horiz-adv-x="716" d="M158 1744q0 32 17.5 49t37.5 17t37 -8l278 -143q33 -19 33 -50.5t-17.5 -49t-37.5 -17.5t-37 8l-279 144q-32 18 -32 50z" />
<glyph unicode="a" horiz-adv-x="1470" d="M57 98l488 1225q23 57 74 93t116 36q66 0 117 -36t74 -93l209 -526q10 -27 -1.5 -55.5t-39.5 -39.5q-29 -10 -56.5 1.5t-38.5 39.5l-208 529q-14 37 -56 37q-41 0 -55 -37l-252 -637h604q167 0 221 -135l160 -402q5 -13 5 -26q0 -16 -6 -30q-11 -28 -40 -38 q-14 -5 -27 -5q-15 0 -29 6q-28 11 -38 40l-160 401q-18 47 -67 48h-680l-178 -449q-10 -29 -38 -40q-15 -6 -30 -6q-14 0 -27 5q-29 10 -40 39q-6 15 -6 30q0 13 5 25z" />
<glyph unicode="b" horiz-adv-x="1380" d="M215 74v1233q0 53 33 90t96 37h465q192 0 303 -111q105 -105 105 -253t-57.5 -223t-137.5 -102v-2q111 -27 173 -115.5t62 -210.5t-33.5 -200t-91.5 -126q-111 -91 -298 -91h-345q-31 0 -52 21.5t-21 51.5t21.5 49t51.5 19h324q297 0 297 267q0 127 -76 194.5t-196 67.5 h-480v-596q0 -29 -21.5 -51.5t-49.5 -22.5q-29 0 -50.5 22.5t-21.5 51.5zM358 813h447q266 0 266 241q0 240 -264 240h-2h-447v-481z" />
<glyph unicode="c" horiz-adv-x="1384" d="M145 610q0 35 21.5 56.5t50.5 21.5t50.5 -18.5t21.5 -53.5q4 -213 129 -352q127 -143 340 -143q116 0 217.5 69.5t148.5 186.5q21 47 68 47q25 0 47.5 -19.5t22.5 -42t-7 -36.5q-61 -153 -199 -249q-138 -95 -291 -95t-263.5 50t-190.5 135q-166 177 -166 431v12z M145 823v11q0 123 42 233q44 115 124 200t190.5 135t219 50t188.5 -24.5t147 -70.5q139 -96 199 -249q8 -20 8 -36q1 -24 -17 -38q-28 -24 -55 -24q-45 0 -67 47q-47 117 -148.5 186.5t-218 69.5t-198.5 -38t-141 -105q-125 -139 -129 -353q0 -35 -21.5 -53.5t-50.5 -18.5 t-50.5 21.5t-21.5 56.5z" />
<glyph unicode="d" d="M215 74v1233q0 53 33 90t96 37h361q295 0 465 -172q156 -158 169 -435q3 -56 3 -113.5t-3 -117.5q-6 -120 -49 -232t-122 -193q-165 -171 -463 -171h-220q-31 0 -52 21.5t-21 51.5t21.5 50t51.5 20h217q353 0 456 274q41 109 41 297q0 53 -3 113q-19 337 -280 431 q-91 32 -214 32h-344v-1216q0 -31 -20.5 -52.5t-50 -21.5t-51 22.5t-21.5 51.5z" />
<glyph unicode="e" horiz-adv-x="1288" d="M215 127v463q0 84 61 144q58 59 142 59h633q31 0 52 -19.5t21 -49.5t-22.5 -51.5t-50.5 -21.5h-631q-27 0 -44.5 -17.5t-17.5 -43.5v-447h713q29 0 51.5 -21.5t22.5 -51t-21.5 -50t-52.5 -20.5h-727q-63 0 -96 37t-33 90zM215 893v414q0 53 33 90t96 37h723 q31 0 52.5 -20.5t21.5 -50.5t-22.5 -51.5t-51.5 -21.5h-709v-397q0 -31 -20.5 -52.5t-50 -21.5t-51 22.5t-21.5 51.5z" />
<glyph unicode="f" horiz-adv-x="1222" d="M215 74v487q0 86 59.5 145.5t145.5 59.5h610q31 0 52.5 -20.5t21.5 -50.5t-22.5 -51t-51.5 -21h-610q-27 0 -44.5 -17.5t-17.5 -44.5v-487q0 -31 -20.5 -52.5t-50 -21.5t-51 22.5t-21.5 51.5zM215 860v447q0 53 33 90t96 37h723q31 0 52.5 -20.5t21.5 -50.5t-22.5 -51.5 t-51.5 -21.5h-709v-430q0 -31 -20.5 -52.5t-50 -21.5t-51 22.5t-21.5 51.5z" />
<glyph unicode="g" horiz-adv-x="1435" d="M148 860q10 142 58 246t127 181q169 165 410 165q174 0 310.5 -87t206.5 -237q6 -16 6 -37.5t-21.5 -43t-47.5 -21.5q-43 0 -69 43q-53 113 -153.5 178.5t-212 65.5t-190 -33t-136.5 -90q-125 -121 -141 -297q-9 -101 -9 -184q0 -62 5 -115q12 -123 40.5 -194.5 t76.5 -127.5q104 -118 249 -145q23 -4 40.5 -23.5t17.5 -46.5t-20.5 -46t-38.5 -19q-101 0 -201.5 61.5t-160.5 134.5q-128 153 -142 341q-8 110 -8 204q0 67 4 127zM760 685q0 30 21.5 50.5t52.5 20.5h329q63 0 96 -37t33 -90v-142q0 -177 -110 -313q-118 -143 -303 -178 q-20 -4 -43 -4t-43.5 19.5t-20.5 46t17.5 46t39.5 23.5q144 25 231 116q89 93 89 228v141h-315q-31 0 -52.5 21.5t-21.5 51.5z" />
<glyph unicode="h" horiz-adv-x="1570" d="M215 74v1286q0 31 21.5 52.5t51.5 21.5t50 -21.5t20 -52.5v-1286q0 -31 -20.5 -52.5t-50 -21.5t-51 22.5t-21.5 51.5zM414 718q0 30 21.5 50t51.5 20h725v572q0 31 21.5 52.5t51.5 21.5t50.5 -21.5t20.5 -52.5v-1286q0 -31 -20.5 -52.5t-50.5 -21.5t-51.5 22.5 t-21.5 51.5v571h-725q-31 0 -52 21.5t-21 51.5z" />
<glyph unicode="i" horiz-adv-x="573" d="M215 74v1286q0 31 21.5 52.5t51.5 21.5t50 -21.5t20 -52.5v-1286q0 -31 -20.5 -52.5t-50 -21.5t-51 22.5t-21.5 51.5z" />
<glyph unicode="j" horiz-adv-x="1005" d="M41 237.5q0 22.5 21.5 44t56.5 21.5t64.5 -51t86 -90t120.5 -39t110.5 17.5t81.5 53.5q75 77 75 218v948q0 31 21.5 52.5t51.5 21.5t50.5 -21.5t20.5 -52.5v-965q0 -176 -117 -299q-109 -114 -281 -114q-117 0 -213 60t-143 159q-6 14 -6 36.5z" />
<glyph unicode="k" horiz-adv-x="1394" d="M215 74v1286q0 31 21.5 52.5t51.5 21.5t50 -21.5t20 -52.5v-574h236q175 0 264 -116l428 -555q17 -24 17 -47q0 -29 -29 -54q-19 -15 -42 -15q-4 0 -10 1q-30 4 -48 27l-435 555q-50 67 -143 67h-238v-575q0 -31 -20.5 -52.5t-50 -21.5t-51 22.5t-21.5 51.5zM764 853 q-1 5 -1 10q0 22 15 42l391 498q16 25 47 30q6 1 12 1q24 0 43 -16q24 -20 28 -47q1 -5 1 -10q0 -23 -16 -42l-391 -498q-16 -25 -47 -30q-6 -1 -12 -1q-22 0 -42 16q-24 20 -28 47z" />
<glyph unicode="l" horiz-adv-x="1144" d="M215 127v1233q0 31 21.5 52.5t51.5 21.5t50 -21.5t20 -52.5v-1217h693q29 0 51 -21.5t22 -51t-21.5 -50t-51.5 -20.5h-707q-63 0 -96 37t-33 90z" />
<glyph unicode="m" horiz-adv-x="2009" d="M135 88l215 1221q27 143 158 143q59 0 102 -34t60 -93l313 -1167q6 -23 23 -23q18 0 24 23l307 1167q16 59 59.5 93t102.5 34q129 0 158 -143l217 -1221q1 -7 1 -14q1 -20 -9 -40q-12 -26 -46 -34q-11 -3 -20 -3q-20 -1 -38 11q-26 16 -29 47l-211 1235q-6 23 -23.5 23 t-23.5 -21l-314 -1149q-37 -143 -156.5 -143t-158.5 143l-314 1149q-6 20 -20 20q-21 1 -27 -22l-209 -1235q-4 -31 -30 -47q-17 -11 -37 -11q-10 0 -21 3q-54 13 -54 69q0 9 1 19z" />
<glyph unicode="n" horiz-adv-x="1605" d="M215 74v1226q0 55 35 94.5t100.5 39.5t116.5 -72l344 -522q12 -18 12 -43t-21.5 -46.5t-54 -21.5t-55.5 33l-336 514h-4q6 -183 6 -301v-901q0 -31 -20.5 -52.5t-50 -21.5t-51 22.5t-21.5 51.5zM791 639q0 25 21.5 46.5t53 21.5t56.5 -35l329 -504h4q-8 244 -8 293v899 q0 31 21.5 52.5t51.5 21.5t50.5 -21.5t20.5 -52.5v-1233q0 -53 -34 -90t-78 -37q-83 0 -128 68l-348 528q-12 18 -12 43z" />
<glyph unicode="o" d="M150 551q-7 92 -7 172q0 247 63 383q98 213 310 302q105 44 227 44q242 0 411 -165q167 -162 183 -404q7 -95 7 -177q0 -224 -52 -354q-73 -182 -235 -282q-119 -74 -211 -74q-27 0 -47.5 19.5t-20.5 46t17.5 46t40.5 23.5q148 27 244 143q96 117 112 280q9 93 9 175 q0 61 -5 116q-12 128 -49 208t-95 137q-127 123 -309 123q-181 0 -307 -123q-125 -121 -141 -297q-9 -101 -10 -184q0 -62 6 -115q12 -123 39.5 -193.5t73.5 -126.5q98 -115 247 -143q23 -4 40.5 -23.5t17.5 -46.5t-20.5 -46t-38.5 -19q-101 0 -200.5 61.5t-159.5 132.5 q-124 147 -140 361z" />
<glyph unicode="p" horiz-adv-x="1316" d="M215 74v1233q0 53 33 90t96 37h414q191 0 320 -116q136 -121 136 -325q0 -208 -134 -329q-127 -115 -339 -115h-254q-33 0 -54 20.5t-21 51.5t21.5 50t53.5 19h254q248 0 307 178q19 56 19 123q0 135 -77 219t-238 84h-394v-1220q0 -29 -21.5 -51.5t-49.5 -22.5 q-29 0 -50.5 22.5t-21.5 51.5z" />
<glyph unicode="q" d="M150 551q-7 92 -7 172q0 247 63 383q98 213 310 302q105 44 227 44q242 0 411 -165q167 -162 183 -404q7 -91 7 -171q0 -248 -64 -386q-47 -101 -125 -176l125 -156q18 -25 14 -52.5t-28 -46.5q-18 -15 -42 -15h-12q-30 5 -47 30l-123 151q-116 -65 -196 -65 q-27 0 -47.5 19.5t-20.5 46t17.5 46t40.5 23.5q148 27 244 143q96 117 112 280q9 93 9 175q0 61 -5 116q-12 128 -49 208t-95 137q-127 123 -309 123q-181 0 -307 -123q-125 -121 -141 -297q-9 -101 -9 -184q0 -62 5 -115q12 -123 39.5 -193.5t73.5 -126.5q98 -115 247 -143 q23 -4 40.5 -23.5t17.5 -46.5t-20.5 -46t-38.5 -19q-101 0 -200.5 61.5t-159.5 132.5q-124 147 -140 361z" />
<glyph unicode="r" horiz-adv-x="1404" d="M215 74v1233q0 53 33 90t96 37h432q194 0 320 -111q137 -120 137 -339q0 -120 -61.5 -216t-165.5 -150q-14 -8 -39 -8t-46.5 20.5t-21.5 56.5t39 56q76 41 111.5 100.5t35.5 176t-76.5 195.5t-238.5 79h-412v-577h273q78 0 134 -27.5t105 -89.5l385 -483q15 -21 15 -48 v-5q-2 -30 -25 -48q-19 -19 -44 -19q-5 1 -9 1q-30 4 -49 27l-389 487q-52 66 -123 66h-273v-504q0 -29 -21.5 -51.5t-49.5 -22.5q-29 0 -50.5 22.5t-21.5 51.5z" />
<glyph unicode="s" horiz-adv-x="1273" d="M123 193.5q0 34.5 21.5 54.5t43.5 20q33 0 81.5 -36.5t151.5 -73.5t217.5 -37t184.5 21.5t114 55.5q87 69 87 179q0 101 -62 157q-62 57 -231 99q-23 6 -39 25.5t-16 48.5t26 52q18 16 44 16q11 0 24 -3q205 -47 303 -143.5t98 -251.5q0 -181 -143 -289 q-140 -106 -364 -106q-239 0 -424 98q-54 29 -85.5 54t-31.5 59.5zM135 1057q0 179 133 289q129 106 344 106q123 0 229.5 -31.5t172.5 -85.5q27 -23 27 -54q-1 -33 -23 -55q-22 -20 -43.5 -20t-34.5 8l-22 13q-142 86 -302 86q-177 0 -262 -76q-71 -64 -71 -176 q0 -100 62 -152t230 -94q23 -6 39.5 -25.5t16.5 -48.5q1 -29 -25 -52q-18 -16 -45 -16q-11 0 -24 3q-205 47 -303.5 136t-98.5 245z" />
<glyph unicode="t" horiz-adv-x="1220" d="M41 1363q0 30 21.5 50.5t52.5 20.5h991q31 0 52.5 -20.5t21.5 -50.5t-22.5 -51.5t-51.5 -21.5h-422v-1216q0 -31 -20.5 -52.5t-50.5 -21.5t-51 22.5t-21 51.5v1216h-426q-31 0 -52.5 21.5t-21.5 51.5z" />
<glyph unicode="u" horiz-adv-x="1531" d="M195 573v787q0 31 21.5 52.5t51 21.5t50 -21.5t20.5 -52.5v-780q0 -209 122 -336q116 -123 296 -123t297 104q18 18 47 19q29 0 50 -21.5t21 -52.5t-24 -51q-158 -137 -381 -137q-247 0 -408 164q-163 164 -163 427zM1147 328.5q0 21.5 4 33.5q43 94 43 218v780 q0 31 21.5 52.5t51.5 21.5t50 -21.5t20 -52.5v-787q0 -145 -53 -264q-18 -45 -56 -45t-59.5 21.5t-21.5 43z" />
<glyph unicode="v" horiz-adv-x="1396" d="M57 1335q-5 13 -5 25q0 14 6 30q12 28 40 40q13 5 27 5q15 -1 29 -7q28 -12 39 -39l479 -1252q8 -20 26 -20t27 20l479 1252q10 29 38 40q15 6 29 6l27 -5q28 -10 40 -39q6 -15 6 -29t-5 -27l-469 -1216q-57 -141 -172 -142q-115 0 -172 142z" />
<glyph unicode="w" horiz-adv-x="1972" d="M84 1343q-2 9 -2 18q0 17 8 35q12 26 43 36q11 3 21 3q18 -1 36 -11q26 -16 33 -44l287 -1269h4l340 1212q16 53 52 80t78 27t80 -27t52 -78l334 -1214h4l295 1269q9 28 33 44q16 10 35 11q10 0 21 -3q32 -8 43 -35q7 -17 7 -35q0 -10 -2 -19l-305 -1249 q-14 -55 -50 -83.5t-79 -28.5t-80 28.5t-53 81.5l-332 1202h-6l-340 -1202q-16 -53 -51 -81.5t-78 -28.5t-81 28.5t-50 83.5z" />
<glyph unicode="x" horiz-adv-x="1349" d="M79 1368q3 30 25.5 48.5t52 14.5t50.5 -26l467 -578l469 578q20 25 50 28h8q25 -1 45 -17q22 -20 25 -49.5t-18 -53.5l-487 -598l487 -598q19 -23 19 -50q0 -33 -26 -53q-21 -16 -46 -15h-8q-30 3 -49 26l-1047 1288q-17 22 -17 47v8zM80 65v6q0 25 18 48l398 489 q20 23 50 27q5 1 9 1q24 0 43 -16q23 -20 26 -50v-7q0 -25 -18 -47l-397 -489q-18 -23 -49 -26h-8q-26 0 -46 16q-24 19 -26 48z" />
<glyph unicode="y" horiz-adv-x="1318" d="M36 1368q3 29 25.5 48t53 15t49.5 -26l495 -619l496 619q18 23 49 27q5 1 10 1q25 0 44 -17q22 -19 25 -49v-8q0 -25 -17 -46l-480 -590q-25 -31 -40 -52.5t-15 -64.5v-532q0 -31 -20.5 -52.5t-50.5 -21.5t-51 22.5t-21 51.5v532q0 43 -16.5 65.5t-41.5 53.5l-477 588 q-17 22 -17 47v8z" />
<glyph unicode="z" horiz-adv-x="1196" d="M113 121q0 49 34 96l330 457q23 33 56 33t53 -21.5t20 -46t-12 -43.5l-326 -453h772q31 0 52.5 -21.5t21.5 -51t-21.5 -50t-52.5 -20.5h-788q-66 0 -102.5 36t-36.5 85zM121 1363q0 30 21.5 50.5t52.5 20.5h735q70 0 106.5 -36t36.5 -75q0 -61 -43 -119l-317 -442 q-23 -33 -56 -33t-54 21.5t-21 46t12 43.5l324 450h-723q-31 0 -52.5 21.5t-21.5 51.5z" />
<glyph unicode="{" horiz-adv-x="753" d="M72 710q0 50 41 81q66 51 87 104t21 129v467q0 86 59.5 145.5t145.5 59.5h233q31 0 52.5 -20.5t21.5 -50.5t-22.5 -51.5t-51.5 -21.5h-233q-27 0 -44 -17t-17 -44v-467q0 -213 -138 -305q60 -48 85 -93q53 -94 53 -212v-496q0 -27 17 -44t44 -17h233q29 0 51.5 -21.5 t22.5 -51.5t-21.5 -50.5t-52.5 -20.5h-233q-86 0 -145.5 59.5t-59.5 145.5v494q0 76 -21.5 129t-86.5 104q-41 31 -41 65z" />
<glyph unicode="|" horiz-adv-x="626" d="M236 -213v1849q0 31 21.5 52.5t51 21.5t50 -21.5t20.5 -52.5v-1849q0 -31 -20.5 -52.5t-50.5 -21.5t-51 22.5t-21 51.5z" />
<glyph unicode="}" horiz-adv-x="753" d="M20 -216q0 30 23 51.5t51 21.5h234q27 0 44 17t17 44v496q0 199 137 305q-88 54 -124 188q-13 51 -13 117v467q0 27 -17.5 44t-43.5 17h-234q-29 0 -51.5 21.5t-22.5 51.5t21.5 50.5t52.5 20.5h234q86 0 145 -59.5t59 -145.5v-467q0 -76 21.5 -129t87.5 -104 q41 -31 41 -65q0 -50 -54 -91q-96 -74 -96 -223v-494q0 -86 -59 -145.5t-145 -59.5h-234q-31 0 -52.5 20.5t-21.5 50.5z" />
<glyph unicode="~" horiz-adv-x="1128" d="M94 718q0 42 62 68q139 60 212.5 60t123 -15.5t94.5 -34.5t96 -38t99 -19q82 0 182 54q47 24 81 -1q31 -22 31 -54q0 -51 -55 -76q-145 -62 -231 -62t-168 34.5t-133.5 53.5t-99.5 19q-83 0 -181 -54q-71 -37 -105 27q-8 16 -8 38z" />
<glyph unicode="&#xa1;" horiz-adv-x="430" d="M143 74l9 831q0 27 18 46.5t45 19.5t45.5 -18.5t18.5 -47.5l8 -831q0 -31 -20.5 -52.5t-50.5 -21.5t-51.5 21.5t-21.5 52.5zM143 1268v92q0 29 21.5 51.5t51.5 22.5t50.5 -21.5t20.5 -52.5v-92q0 -31 -20.5 -52.5t-50.5 -21.5t-51.5 21.5t-21.5 52.5z" />
<glyph unicode="&#xa2;" horiz-adv-x="1042" d="M204 803.5q5 87.5 31.5 150t69.5 110.5q92 103 223 126v192q0 29 19.5 49.5t47.5 20.5t46 -20.5t18 -49.5v-192q96 -16 170 -74.5t107 -138.5q8 -16 8 -41t-21.5 -43.5t-45.5 -18.5q-48 0 -64 44q-29 66 -86 106.5t-129 40.5q-117 0 -180.5 -70.5t-73.5 -175t0 -208.5 t73.5 -172t180.5 -68q72 0 129 40t86 105q16 43 64 43q25 0 45 -18.5t20 -40t-6 -35.5q-86 -188 -277 -223v-191q0 -29 -18 -49t-46 -20t-47.5 20.5t-19.5 48.5v193q-135 24 -223 124q-92 103 -99 225.5t-2 210z" />
<glyph unicode="&#xa3;" horiz-adv-x="1146" d="M111 93q0 34 9 54.5t32 63.5q57 110 57 209l2 117q0 82 61 144q56 58 142 58h260q31 0 52.5 -19.5t21.5 -49t-23 -51t-51 -21.5h-258q-27 0 -44.5 -17.5t-17.5 -43.5l-2 -82q-4 -172 -86 -312h744q29 0 51 -21.5t22 -51t-21.5 -50t-51.5 -20.5h-772q-59 0 -93 29.5 t-34 63.5zM150 1028q0 103 25.5 174.5t78.5 126.5q119 123 330 123q242 0 432 -168q25 -25 22.5 -57.5t-25 -51t-52 -16.5t-69.5 36t-122 76t-179 42t-151.5 -25.5t-87.5 -64.5q-59 -70 -59 -179q-3 -76 37 -180q16 -41 -2.5 -68.5t-46.5 -33.5q-58 -8 -86 57 q-45 106 -45 209z" />
<glyph unicode="&#xa4;" horiz-adv-x="1273" d="M102 1180.5q0 29.5 22 51.5t51.5 20.5t51.5 -23.5l168 -170q108 90 242 90q132 0 242 -90l168 170q23 23 52 23.5t50.5 -20.5t21.5 -51t-22 -53l-180 -182q35 -72 38 -150.5t2 -153.5t-40 -153l180 -180q23 -23 22.5 -52.5t-22 -51t-51 -20.5t-51.5 24l-166 166 q-103 -90 -244 -90t-244 90l-166 -166q-23 -23 -52.5 -24t-50.5 20.5t-21.5 51.5t22.5 52l180 180q-35 72 -38 149.5t0 156.5t38 151l-180 182q-23 23 -23 52.5zM401.5 671q3.5 -67 22 -109t50.5 -74q70 -68 163 -68q95 0 161 68t70 165q6 158 -16.5 209t-53.5 83 q-65 69 -161 69q-94 0 -163 -69q-65 -65 -71 -165q-5 -42 -1.5 -109z" />
<glyph unicode="&#xa5;" horiz-adv-x="1318" d="M36 1367.5q3 29.5 25.5 48.5t53 15t49.5 -26l467 -582q12 -18 28 -18q17 0 29 18l467 582q18 23 49 27t53.5 -15.5t25.5 -49.5t-17 -54l-459 -565q-74 -89 -148 -89q-75 0 -147 89l-459 565q-20 25 -17 54.5zM254 533.5q0 29.5 20.5 49t49.5 19.5h671q29 0 49.5 -19.5 t20.5 -49.5t-20.5 -49t-49.5 -19h-264v-391q0 -31 -20.5 -52.5t-50.5 -21.5t-51 22.5t-21 51.5v391h-264q-29 0 -49.5 19.5t-20.5 49z" />
<glyph unicode="&#xa6;" horiz-adv-x="626" d="M236 -213v801q0 31 21.5 52.5t51 21.5t50 -22t20.5 -52v-801q0 -31 -20.5 -52.5t-50.5 -21.5t-51 22.5t-21 51.5zM236 836v800q0 31 21.5 52.5t51 21.5t50 -21.5t20.5 -52.5v-800q0 -31 -20.5 -52.5t-50.5 -21.5t-51 22.5t-21 51.5z" />
<glyph unicode="&#xa7;" horiz-adv-x="1191" d="M170 681q0 28 21.5 47.5t58.5 19.5t57 -48.5t46 -74t70 -41t110.5 -28.5t166.5 -36q205 -47 300.5 -128.5t95.5 -238t-120 -260.5t-314.5 -104t-364.5 77q-45 21 -71 43t-25.5 54.5t22 52t43.5 19.5t34.5 -7.5t35.5 -22t65.5 -29.5t85.5 -25q90 -21 170 -21t139.5 19.5 t93.5 51.5q60 56 60 133t-20.5 116t-60.5 64q-61 39 -188.5 67t-202.5 46.5t-133 45.5q-124 58 -169 168q-6 12 -6 40zM178 1081q0 159 120 263q123 108 344 108q120 0 216 -39t148 -80q27 -23 26.5 -55.5t-22 -52t-44 -19.5t-34.5 7.5t-53.5 33t-111 45t-148 19.5 t-138 -20.5t-95.5 -52.5q-62 -55 -62 -132t18 -115.5t55 -62t91.5 -37.5t135 -32.5t156.5 -37t134 -45.5q126 -56 169 -168q7 -14 7 -41t-21.5 -46t-48.5 -19q-52 0 -72 49t-45.5 74.5t-68.5 41t-109 28t-167 35t-173 52t-118 71.5q-89 81 -89 228z" />
<glyph unicode="&#xa8;" horiz-adv-x="716" d="M84 1656q0 42 29.5 71.5t71.5 29.5t71 -29.5t29 -71.5t-29 -71t-71 -29t-71.5 29t-29.5 71zM432 1656q0 42 29.5 71.5t71.5 29.5t71 -29.5t29 -71.5t-29 -71t-71 -29t-71.5 29t-29.5 71z" />
<glyph unicode="&#xa9;" horiz-adv-x="1658" d="M207 616q-4 102 1 221t54 234t133 200q179 181 434 181q256 0 435 -181q84 -85 133 -200t54 -234t0 -237.5t-54 -233t-133 -198.5q-180 -180 -435 -180q-254 0 -434 180q-176 176 -188 448zM322 599.5q10 -108.5 52 -202.5t108 -159q138 -136 347 -136q210 0 347 136 q67 65 109 159t49 178t7 144.5t-7 144.5t-49 178.5t-109 159.5q-136 135 -347 135q-210 0 -347 -135q-140 -138 -160 -373q-10 -121 0 -229.5zM484 803q7 84 36 144.5t75 105.5q98 96 222.5 96t204.5 -51t115 -135q10 -25 10 -45.5t-18.5 -33t-38.5 -12.5q-31 0 -50 33 q-27 59 -82 96t-140 37t-145.5 -63.5t-70.5 -163.5q-4 -49 -4 -92t4 -90q10 -98 70.5 -163t145.5 -65q164 0 222 131q15 35 50 35q20 0 38.5 -12t18.5 -31q0 -22 -10 -47q-35 -86 -115 -137t-170.5 -51t-150.5 25.5t-105 71.5q-95 97 -109 241q-10 92 -3 176z" />
<glyph unicode="&#xaa;" horiz-adv-x="983" d="M51 542.5q-8 22.5 0 45.5l307 776q16 39 51 63.5t83 24.5q100 0 139 -100l114 -293q8 -23 0 -45.5t-30 -32.5q-27 -10 -48.5 2t-31.5 35l-117 295q-6 20 -26 20t-29 -20l-146 -383h363q59 0 96 -22.5t60 -76.5l96 -243q8 -23 0 -45.5t-33 -32.5t-46.5 2t-31.5 35l-94 241 q-10 31 -45 31h-408l-112 -272q-10 -23 -31.5 -35t-46.5 -2t-33 32.5z" />
<glyph unicode="&#xab;" horiz-adv-x="1126" d="M102 717q0 74 88 147l246 199q25 20 54.5 17t49 -25.5t15.5 -53t-27 -49.5l-262 -207q-18 -12 -18 -28q0 -17 18 -29l262 -209q23 -18 27 -49t-15 -53.5t-49 -25.5t-55 18l-246 200q-88 73 -88 148zM498 717q0 74 88 147l245 199q25 20 54.5 17t49 -25.5t15.5 -53 t-26 -49.5l-262 -207q-19 -13 -19 -28q0 -18 19 -29l262 -209q23 -18 26.5 -49t-15.5 -53.5t-49 -25.5t-55 18l-245 200q-88 73 -88 148z" />
<glyph unicode="&#xac;" horiz-adv-x="1284" d="M123 718q0 30 21.5 50t52.5 20h837q63 0 96 -36.5t33 -89.5v-394q0 -31 -20.5 -52t-50 -21t-51 22.5t-21.5 50.5v377h-823q-31 0 -52.5 21.5t-21.5 51.5z" />
<glyph unicode="&#xad;" horiz-adv-x="843" d="M184 718q0 30 21.5 50t52.5 20h328q31 0 52 -20t21 -50t-22.5 -51.5t-50.5 -21.5h-328q-31 0 -52.5 21.5t-21.5 51.5z" />
<glyph unicode="&#xae;" horiz-adv-x="1259" d="M170 842q-4 74 0 160.5t40 170.5t98 147q130 132 317 132t317 -132q128 -131 137 -317q4 -87 0 -173t-39.5 -170.5t-97.5 -146.5q-130 -132 -317 -132t-317 132q-130 131 -138 329zM279 840q14 -164 109 -259.5t237 -95.5q141 0 245.5 104.5t104.5 327t-104.5 327 t-245.5 104.5t-236.5 -95.5t-109.5 -259.5q-5 -93 0 -153zM430 684v455q0 27 16.5 45t47.5 18h161q74 0 129.5 -45t55.5 -131q0 -121 -121 -160l129 -155q10 -14 10 -31q0 -16 -12 -28.5t-30.5 -12.5t-33.5 14l-149 183q-18 18 -37 18h-80v-170q0 -18 -12 -30.5t-30.5 -12.5 t-31 12.5t-12.5 30.5zM516 936h129q105 0 105 92q0 41 -24 66.5t-77 25.5h-133v-184z" />
<glyph unicode="&#xaf;" horiz-adv-x="716" d="M131 1636q0 27 17.5 44.5t44.5 17.5h339q27 0 44.5 -17.5t17.5 -44.5t-17.5 -44t-44.5 -17h-339q-27 0 -44.5 17.5t-17.5 43.5z" />
<glyph unicode="&#xb0;" horiz-adv-x="604" d="M49 1192q0 53 17.5 99t51.5 82q75 79 185 79q111 0 183 -79q69 -77 69 -175q0 -59 -33 -118.5t-86 -94.5q-52 -27 -84 12q-10 14 -12 42t23.5 39t50 45t24.5 79t-34.5 89t-102.5 44t-101.5 -44t-33.5 -89t21.5 -76.5t48.5 -44.5q27 -12 27.5 -38.5t-9.5 -44t-37 -22.5 t-43 5q-63 37 -94 97.5t-31 113.5z" />
<glyph unicode="&#xb1;" horiz-adv-x="1284" d="M123 73q0 30 21.5 50t52.5 20h893q31 0 52 -20.5t21 -50t-22.5 -51t-50.5 -21.5h-893q-31 0 -52.5 21.5t-21.5 51.5zM123 718q0 30 21.5 50t52.5 20h376v377q0 31 21.5 52.5t51.5 21.5t50.5 -21.5t20.5 -52.5v-377h373q31 0 52 -20t21 -50t-22.5 -51.5t-50.5 -21.5h-373 v-356q0 -31 -20.5 -52.5t-50.5 -21.5t-51.5 22.5t-21.5 51.5v356h-376q-31 0 -52.5 21.5t-21.5 51.5z" />
<glyph unicode="&#xb2;" horiz-adv-x="942" d="M150 1260q0 68 124 146q72 46 179 46q152 0 228.5 -78t76.5 -188q0 -109 -68 -186q-57 -64 -182 -152t-164 -127t-47 -82h412q29 0 49 -19.5t20 -48.5t-20.5 -48t-48.5 -19h-463q-92 0 -92 116q0 134 206 289q10 8 25.5 18.5t50.5 36t75 56.5t65 56q45 48 45 110 q0 50 -29 79q-54 54 -124 54q-123 0 -185 -84q-29 -39 -61 -39t-52 18.5t-20 45.5z" />
<glyph unicode="&#xb3;" horiz-adv-x="888" d="M133 547q0 29 20.5 52.5t44.5 20.5q39 -6 81 -6q158 0 252 55.5t94 157.5q0 66 -45 104t-117 38l-88 -8q-27 0 -47.5 17t-20.5 46t23 51l192 209h-321q-29 0 -48.5 20.5t-19.5 49.5t19.5 48t48.5 19h411q39 0 68 -24.5t29 -52.5q0 -47 -19 -70l-172 -182q105 -12 173 -84 q69 -72 69 -179q0 -162 -131 -255t-361 -93h-32q-60 0 -79.5 19.5t-23.5 46.5z" />
<glyph unicode="&#xb4;" horiz-adv-x="716" d="M158 1600q0 41 32 59l279 143q16 8 37 8t38 -17t17 -39q0 -42 -33 -60l-278 -144q-16 -8 -37 -8t-38 17.5t-17 40.5z" />
<glyph unicode="&#xb6;" horiz-adv-x="1306" d="M102 993q0 203 136 325q130 116 321 116h414q63 0 96 -37t33 -90v-1233q0 -29 -21.5 -51.5t-50.5 -22.5t-50.5 22.5t-21.5 51.5v1220h-81v-1220q0 -29 -21.5 -51.5t-50.5 -22.5t-50.5 22.5t-21.5 51.5v1220h-168q-162 0 -238.5 -84t-76.5 -219q0 -217 176 -279 q61 -22 149 -22h29q33 0 54.5 -19.5t21.5 -50t-21.5 -51t-54.5 -20.5h-29q-210 0 -339 115q-134 119 -134 329z" />
<glyph unicode="&#xb7;" horiz-adv-x="430" d="M143 678v92q0 31 21.5 52.5t51.5 21.5t50.5 -21.5t20.5 -52.5v-92q0 -31 -20.5 -52.5t-50.5 -21.5t-51.5 22.5t-21.5 51.5z" />
<glyph unicode="&#xb8;" horiz-adv-x="716" d="M219 -461q0 38 47 60q131 41 152 95q6 15 6 32.5t-15.5 39t-48.5 21.5l-61 -8q-31 0 -49.5 25.5t-5.5 58.5l39 108q14 47 47 47t48 -16t15 -31.5t-4 -27.5l-16 -43q78 -4 127 -51.5t49 -108.5t-20.5 -100t-55.5 -69q-67 -58 -168 -89q-29 -10 -57.5 3t-28.5 54z" />
<glyph unicode="&#xb9;" horiz-adv-x="675" d="M95 1251.5q9 28.5 32 42.5l229 129q52 26 86 -9q19 -21 19 -50v-799q0 -29 -19.5 -48t-48.5 -19t-49 20.5t-20 46.5v682l-131 -71q-56 -29 -93 24q-14 23 -5 51.5z" />
<glyph unicode="&#xba;" horiz-adv-x="966" d="M95 1064.5q5 92.5 37 160t83 119.5q107 108 268 108q160 0 269 -108q110 -111 118 -267q6 -104 -1 -224t-85.5 -217t-191.5 -128q-16 -4 -35 -4t-35 17.5t-16 38.5q0 42 43 56q186 63 205 254q17 209 -28 308q-42 96 -140 138q-48 21 -103 21q-106 0 -185 -75 q-72 -70 -83.5 -180.5t-1.5 -211.5q18 -190 205 -254q43 -14 43 -46t-16.5 -49t-34.5 -17t-35 4q-113 31 -192 128t-86 216.5t-2 212z" />
<glyph unicode="&#xbb;" horiz-adv-x="1126" d="M176 1001q-4 31 15.5 54t49 25.5t54.5 -17.5l246 -199q88 -73 88 -147q0 -75 -88 -148l-246 -200q-25 -20 -54.5 -17.5t-48.5 25.5t-15.5 53.5t26.5 48.5l262 209q18 12 18 29q0 16 -18 28l-262 207q-23 18 -27 49zM571 1001q-4 31 15.5 54t49.5 25.5t54 -17.5l246 -199 q88 -73 88 -147q0 -75 -88 -148l-246 -200q-25 -20 -54.5 -17.5t-48.5 25.5t-15.5 53.5t26.5 48.5l262 209q19 13 19 29q0 15 -19 28l-262 207q-23 18 -27 49z" />
<glyph unicode="&#xbc;" horiz-adv-x="2029" d="M167 1251.5q9 28.5 32 42.5l229 129q52 26 85 -9q19 -21 19 -50v-799q0 -29 -19 -48t-48 -19t-49.5 20.5t-20.5 46.5v682l-131 -71q-56 -29 -92 24q-14 23 -5 51.5zM547 49l545 1383q10 29 37.5 40t54.5 1t37 -37t0 -56l-545 -1382q-10 -27 -37 -38t-53 -1q-27 10 -38 38 t-1 52zM1083 296.5q0 30.5 7.5 52.5t35.5 54l424 480q49 53 95.5 53t74 -31t27.5 -74v-487h82q27 0 47 -19.5t20 -48.5t-19 -48t-48 -19h-82v-141q0 -27 -19.5 -47.5t-48.5 -20.5t-48 19.5t-19 48.5v682l-361 -406h250q27 0 47.5 -19.5t20.5 -48.5t-19.5 -48t-48.5 -19h-313 q-45 0 -75 28.5t-30 59z" />
<glyph unicode="&#xbd;" horiz-adv-x="1947" d="M167 1251.5q9 28.5 32 42.5l229 129q52 26 85 -9q19 -21 19 -50v-799q0 -29 -19 -48t-48 -19t-49.5 20.5t-20.5 46.5v682l-131 -71q-56 -29 -92 24q-14 23 -5 51.5zM549 49l545 1383q10 29 37.5 40t54.5 1t37 -37t0 -56l-545 -1382q-10 -27 -37 -38t-53 -1q-27 10 -38 38 t-1 52zM1196 756q0 68 124 146q73 46 179 46q152 0 228.5 -77.5t76.5 -188.5q0 -108 -67 -185q-50 -57 -179 -149t-167.5 -131t-47.5 -82h412q29 0 49.5 -19.5t20.5 -47.5q0 -29 -20.5 -48.5t-49.5 -19.5h-463q-92 0 -92 116q0 133 207 290q10 8 25.5 18t50 35.5t74.5 56.5 t65 56q45 46 45 110q0 52 -29 80q-52 53 -123 53q-121 0 -186 -84q-29 -39 -60.5 -39t-52 18.5t-20.5 45.5z" />
<glyph unicode="&#xbe;" horiz-adv-x="2103" d="M98 547q0 29 20.5 52.5t45.5 20.5q38 -6 80 -6q158 0 252 55.5t94 157.5q0 66 -45 104t-117 38l-88 -8q-27 0 -47.5 17t-20.5 46t23 51l199 211h-328q-29 0 -48.5 19.5t-19.5 48.5t19.5 48t48.5 19h412q39 0 67.5 -24.5t28.5 -52.5q0 -49 -27 -78l-164 -174 q107 -13 173 -84q69 -72 69 -179q0 -162 -131 -255t-361 -93h-33q-59 0 -78.5 19.5t-23.5 46.5zM698 49l545 1383q10 29 38 40t52 1q29 -10 39 -37t0 -56l-545 -1382q-10 -27 -36.5 -38t-53.5 -1t-38 38t-1 52zM1233 296.5q0 30.5 7 52.5t36 54l424 480q49 53 95 53 t73.5 -31t27.5 -74v-487h82q27 0 47.5 -19.5t20.5 -48.5t-19.5 -48t-48.5 -19h-82v-141q0 -27 -19 -47.5t-48 -20.5t-48.5 19.5t-19.5 48.5v682l-360 -406h250q27 0 47 -19.5t20 -48.5t-19.5 -48t-47.5 -19h-314q-45 0 -74.5 28.5t-29.5 59z" />
<glyph unicode="&#xbf;" horiz-adv-x="1144" d="M123 371q0 188 107 303q55 59 136 107q191 114 244 114q27 0 48.5 -19.5t21.5 -48.5q0 -50 -51 -73q-215 -95 -284 -167q-79 -83 -79 -205t73 -191.5t206 -69.5q128 0 180.5 26.5t83 54t58.5 63.5t60 36t53 -22.5t21 -49.5t-29.5 -63.5t-71.5 -73.5t-94 -62 q-103 -48 -229 -48t-203 28.5t-132 80.5q-119 111 -119 280zM535 1268v92q0 31 20 52.5t50 21.5t51.5 -22.5t21.5 -51.5v-92q0 -31 -21.5 -52.5t-51.5 -21.5t-50 21.5t-20 52.5z" />
<glyph unicode="&#xc0;" horiz-adv-x="1470" d="M57 98l488 1225q23 57 74 93t116 36q66 0 117 -36t74 -93l209 -526q10 -27 -1.5 -55.5t-39.5 -39.5q-29 -10 -56.5 1.5t-38.5 39.5l-208 529q-14 37 -56 37q-41 0 -55 -37l-252 -637h604q167 0 221 -135l160 -402q10 -27 -1 -55.5t-40 -38.5t-56.5 1t-37.5 40l-160 401 q-18 47 -67 48h-680l-178 -449q-10 -29 -38 -40t-57 -1t-40 39t-1 55zM424 1742.5q0 31.5 17.5 48.5t37.5 17t37 -8l279 -143q32 -18 32 -50t-17 -49.5t-37.5 -17.5t-37.5 8l-278 144q-33 19 -33 50.5z" />
<glyph unicode="&#xc1;" horiz-adv-x="1470" d="M57 98l488 1225q23 57 74 93t116 36q66 0 117 -36t74 -93l209 -526q10 -27 -1.5 -55.5t-39.5 -39.5q-29 -10 -56.5 1.5t-38.5 39.5l-208 529q-14 37 -56 37q-41 0 -55 -37l-252 -637h604q167 0 221 -135l160 -402q10 -27 -1 -55.5t-40 -38.5t-56.5 1t-37.5 40l-160 401 q-18 47 -67 48h-680l-178 -449q-10 -29 -38 -40t-57 -1t-40 39t-1 55zM639 1598q0 41 33 59l278 143q16 8 37 8t38 -17t17 -39q0 -42 -32 -60l-279 -144q-16 -8 -37 -8t-38 17.5t-17 40.5z" />
<glyph unicode="&#xc2;" horiz-adv-x="1470" d="M57 98l488 1225q23 57 74 93t116 36q66 0 117 -36t74 -93l209 -526q10 -27 -1.5 -55.5t-39.5 -39.5q-29 -10 -56.5 1.5t-38.5 39.5l-208 529q-14 37 -56 37q-41 0 -55 -37l-252 -637h604q167 0 221 -135l160 -402q10 -27 -1 -55.5t-40 -38.5t-56.5 1t-37.5 40l-160 401 q-18 47 -67 48h-680l-178 -449q-10 -29 -38 -40t-57 -1t-40 39t-1 55zM467 1591q0 34 27 56l184 137q28 22 50 22q26 0 63 -22l186 -137q27 -22 27 -49.5t-16.5 -45.5t-41 -18t-45.5 14l-166 125l-166 -125q-20 -14 -45 -14t-41 18.5t-16 38.5z" />
<glyph unicode="&#xc3;" horiz-adv-x="1470" d="M57 98l488 1225q23 57 74 93t116 36q66 0 117 -36t74 -93l209 -526q10 -27 -1.5 -55.5t-39.5 -39.5q-29 -10 -56.5 1.5t-38.5 39.5l-208 529q-14 37 -56 37q-41 0 -55 -37l-252 -637h604q167 0 221 -135l160 -402q10 -27 -1 -55.5t-40 -38.5t-56.5 1t-37.5 40l-160 401 q-18 47 -67 48h-680l-178 -449q-10 -29 -38 -40t-57 -1t-40 39t-1 55zM446 1612q0 28 27 55q80 66 148 66q58 0 103 -26q85 -48 112.5 -48t42 8t27.5 19q31 26 57.5 26t42.5 -18.5t16 -38.5q0 -29 -27 -56q-78 -65 -146 -65q-55 0 -104 25.5t-73.5 37t-45.5 11.5t-36 -8.5 t-27 -18.5q-32 -27 -58 -27t-42.5 18.5t-16.5 39.5z" />
<glyph unicode="&#xc4;" horiz-adv-x="1470" d="M57 98l488 1225q23 57 74 93t116 36q66 0 117 -36t74 -93l209 -526q10 -27 -1.5 -55.5t-39.5 -39.5q-29 -10 -56.5 1.5t-38.5 39.5l-208 529q-14 37 -56 37q-41 0 -55 -37l-252 -637h604q167 0 221 -135l160 -402q10 -27 -1 -55.5t-40 -38.5t-56.5 1t-37.5 40l-160 401 q-18 47 -67 48h-680l-178 -449q-10 -29 -38 -40t-57 -1t-40 39t-1 55zM459 1656q0 42 29.5 71.5t71.5 29.5t70.5 -29.5t28.5 -71.5t-28.5 -71t-70.5 -29t-71.5 29t-29.5 71zM807 1656q0 42 29.5 71.5t71.5 29.5t71 -29.5t29 -71.5t-29 -71t-71 -29t-71.5 29t-29.5 71z" />
<glyph unicode="&#xc5;" horiz-adv-x="1470" d="M51 65.5q0 20.5 6 32.5l488 1225q23 57 74 93t116 36q66 0 117 -36t74 -93l209 -526q4 -16 4 -35t-19.5 -42.5t-47.5 -23.5q-54 0 -73 47l-208 529q-14 37 -56 37q-41 0 -55 -37l-252 -637h604q167 0 221 -135l160 -402q4 -16 4 -34.5t-19.5 -42t-47.5 -23.5 q-55 0 -72 47l-160 401q-18 47 -67 48h-680l-178 -449q-20 -47 -60.5 -47t-61 23.5t-20.5 44zM545 1718q0 77 51 132q56 59 141 59q82 0 137 -59q52 -56 52 -132q0 -41 -20.5 -86t-55.5 -66q-63 -38 -88 5q-10 14 -9 37.5t23 33.5q45 28 45 67.5t-21.5 67t-64.5 27.5 t-64.5 -27.5t-21.5 -56.5q0 -47 45 -78q20 -10 24.5 -33.5t-5.5 -38.5t-34 -20.5t-40 4.5q-94 59 -94 164z" />
<glyph unicode="&#xc6;" horiz-adv-x="2072" d="M68 98l579 1153q45 90 101.5 136.5t154.5 46.5h979q31 0 52.5 -20.5t21.5 -50.5t-22.5 -51.5t-51.5 -21.5h-676v-397q0 -31 -20.5 -52.5t-50 -21.5t-51 22.5t-21.5 51.5v397h-178q-37 0 -55.5 -14t-34.5 -49l-252 -502h391q29 0 51.5 -20.5t22.5 -50.5t-21.5 -50 t-52.5 -20h-463l-268 -539q-12 -29 -39 -40t-55 -1q-29 10 -40.5 39t-0.5 55zM1063 127v463q0 84 61 144q58 59 142 59h600q31 0 52 -19.5t21 -49.5t-22.5 -51.5t-50.5 -21.5h-598q-27 0 -44.5 -17.5t-17.5 -43.5v-447h680q29 0 51.5 -21.5t22.5 -51t-21.5 -50t-52.5 -20.5 h-694q-63 0 -96 37t-33 90z" />
<glyph unicode="&#xc7;" horiz-adv-x="1384" d="M145 610q0 35 21.5 56.5t50.5 21.5t50.5 -18.5t21.5 -53.5q4 -213 129 -352q127 -143 325 -143q131 0 232.5 69.5t148.5 186.5q21 47 68 47q25 0 47.5 -19.5t22.5 -42t-18 -65.5t-63.5 -102.5t-104.5 -104.5q-125 -94 -283 -106l-31 -84q78 -4 126 -51.5t48 -108.5 t-20.5 -100t-55.5 -69q-67 -58 -168 -89q-29 -10 -57.5 3t-28.5 54q0 38 47 60q131 41 152 95q6 15 6 32.5t-15.5 39t-47.5 21.5l-62 -8q-31 0 -49.5 25.5t-5.5 58.5l43 123q-235 24 -384 204q-149 181 -145 420zM145 823q-2 129 42 244t124 200t190.5 135t219 50 t188.5 -24.5t147 -70.5q139 -96 199 -249q19 -50 -9.5 -74t-54.5 -24q-45 0 -67 47q-47 117 -148.5 186.5t-218 69.5t-198.5 -38t-141 -105q-125 -139 -129 -353q0 -35 -21.5 -53.5t-50.5 -18.5t-50.5 21.5t-21.5 56.5z" />
<glyph unicode="&#xc8;" horiz-adv-x="1288" d="M215 127v463q0 84 61 144q58 59 142 59h633q31 0 52 -19.5t21 -49.5t-22.5 -51.5t-50.5 -21.5h-631q-27 0 -44.5 -17.5t-17.5 -43.5v-447h713q29 0 51.5 -21.5t22.5 -51t-21.5 -50t-52.5 -20.5h-727q-63 0 -96 37t-33 90zM215 893v414q0 53 33 90t96 37h723 q31 0 52.5 -20.5t21.5 -50.5t-22.5 -51.5t-51.5 -21.5h-709v-397q0 -31 -20.5 -52.5t-50 -21.5t-51 22.5t-21.5 51.5zM438 1742.5q0 31.5 17.5 48.5t38 17t36.5 -8l279 -143q33 -19 33 -50.5t-17.5 -49t-38 -17.5t-36.5 8l-279 144q-33 19 -33 50.5z" />
<glyph unicode="&#xc9;" horiz-adv-x="1288" d="M215 127v463q0 84 61 144q58 59 142 59h633q31 0 52 -19.5t21 -49.5t-22.5 -51.5t-50.5 -21.5h-631q-27 0 -44.5 -17.5t-17.5 -43.5v-447h713q29 0 51.5 -21.5t22.5 -51t-21.5 -50t-52.5 -20.5h-727q-63 0 -96 37t-33 90zM215 893v414q0 53 33 90t96 37h723 q31 0 52.5 -20.5t21.5 -50.5t-22.5 -51.5t-51.5 -21.5h-709v-397q0 -31 -20.5 -52.5t-50 -21.5t-51 22.5t-21.5 51.5zM530 1598q0 40 33 59l279 143q16 8 36.5 8t38 -17t17.5 -39q0 -41 -33 -60l-278 -144q-16 -8 -37 -8t-38.5 17.5t-17.5 40.5z" />
<glyph unicode="&#xca;" horiz-adv-x="1288" d="M215 127v463q0 84 61 144q58 59 142 59h633q31 0 52 -19.5t21 -49.5t-22.5 -51.5t-50.5 -21.5h-631q-27 0 -44.5 -17.5t-17.5 -43.5v-447h713q29 0 51.5 -21.5t22.5 -51t-21.5 -50t-52.5 -20.5h-727q-63 0 -96 37t-33 90zM215 893v414q0 53 33 90t96 37h723 q31 0 52.5 -20.5t21.5 -50.5t-22.5 -51.5t-51.5 -21.5h-709v-397q0 -31 -20.5 -52.5t-50 -21.5t-51 22.5t-21.5 51.5zM418 1591q0 33 26 56l185 137q28 22 51 22q26 0 61 -22l187 -137q26 -21 26 -49t-16 -46t-40.5 -18t-45.5 14l-166 125l-166 -125q-20 -14 -45 -14 t-41 18.5t-16 38.5z" />
<glyph unicode="&#xcb;" horiz-adv-x="1288" d="M215 127v463q0 84 61 144q58 59 142 59h633q31 0 52 -19.5t21 -49.5t-22.5 -51.5t-50.5 -21.5h-631q-27 0 -44.5 -17.5t-17.5 -43.5v-447h713q29 0 51.5 -21.5t22.5 -51t-21.5 -50t-52.5 -20.5h-727q-63 0 -96 37t-33 90zM215 893v414q0 53 33 90t96 37h723 q31 0 52.5 -20.5t21.5 -50.5t-22.5 -51.5t-51.5 -21.5h-709v-397q0 -31 -20.5 -52.5t-50 -21.5t-51 22.5t-21.5 51.5zM418 1656q0 42 29.5 71.5t71.5 29.5t70.5 -29.5t28.5 -71.5t-28.5 -71t-70.5 -29t-71.5 29t-29.5 71zM766 1656q0 42 29.5 71.5t71.5 29.5t71 -29.5 t29 -71.5t-29 -71t-71 -29t-71.5 29t-29.5 71z" />
<glyph unicode="&#xcc;" horiz-adv-x="573" d="M45 1742.5q0 31.5 17.5 48.5t37.5 17t37 -8l279 -143q33 -19 33 -50.5t-17.5 -49t-38 -17.5t-37.5 8l-278 144q-33 19 -33 50.5zM215 74v1286q0 31 21.5 52.5t51.5 21.5t50 -21.5t20 -52.5v-1286q0 -31 -20.5 -52.5t-50 -21.5t-51 22.5t-21.5 51.5z" />
<glyph unicode="&#xcd;" horiz-adv-x="573" d="M133 1598q0 40 33 59l278 143q16 8 37 8t38.5 -17t17.5 -39q0 -41 -33 -60l-279 -144q-16 -8 -36.5 -8t-38 17.5t-17.5 40.5zM215 74v1286q0 31 21.5 52.5t51.5 21.5t50 -21.5t20 -52.5v-1286q0 -31 -20.5 -52.5t-50 -21.5t-51 22.5t-21.5 51.5z" />
<glyph unicode="&#xce;" horiz-adv-x="573" d="M18 1591q0 32 27 56l184 137q29 22 51 22q27 0 62 -22l186 -137q27 -22 27 -49.5t-16.5 -45.5t-40.5 -18t-45 14l-166 125l-166 -125q-20 -14 -45 -14t-41.5 18.5t-16.5 38.5zM215 74v1286q0 31 21.5 52.5t51.5 21.5t50 -21.5t20 -52.5v-1286q0 -31 -20.5 -52.5 t-50 -21.5t-51 22.5t-21.5 51.5z" />
<glyph unicode="&#xcf;" horiz-adv-x="573" d="M10 1656q0 42 30 71.5t72 29.5t70.5 -29.5t28.5 -71.5t-28.5 -71t-70.5 -29t-72 29t-30 71zM215 74v1286q0 31 21.5 52.5t51.5 21.5t50 -21.5t20 -52.5v-1286q0 -31 -20.5 -52.5t-50 -21.5t-51 22.5t-21.5 51.5zM358 1656q0 42 30 71.5t72 29.5t70.5 -29.5t28.5 -71.5 t-28.5 -71t-70.5 -29t-72 29t-30 71z" />
<glyph unicode="&#xd0;" d="M0 711q0 29 19.5 49t50.5 20h145v527q0 53 33 90t96 37h361q295 0 465 -172q156 -158 169 -435q6 -111 0 -231.5t-49 -232t-122 -192.5q-165 -171 -463 -171h-220q-31 0 -52 21.5t-21 51.5t21.5 50t51.5 20h217q353 0 456 274q53 140 38 410q-19 337 -280 431 q-91 32 -214 32h-344v-510h342q31 0 50.5 -20.5t19.5 -48.5q0 -29 -19.5 -49.5t-50.5 -20.5h-342v-567q0 -31 -20.5 -52.5t-50 -21.5t-51 22.5t-21.5 51.5v567h-145q-31 0 -50.5 20.5t-19.5 49.5z" />
<glyph unicode="&#xd1;" horiz-adv-x="1605" d="M215 74v1226q0 55 35 94.5t100.5 39.5t116.5 -72l344 -522q12 -18 12 -43t-21.5 -46.5t-54 -21.5t-55.5 33l-336 514h-4q6 -183 6 -301v-901q0 -31 -20.5 -52.5t-50 -21.5t-51 22.5t-21.5 51.5zM547 1612q0 29 26 55q80 66 148 66q58 0 103 -26q85 -48 112.5 -48t42 8 t27.5 19q31 26 57.5 26t42.5 -18.5t16 -38.5q0 -27 -26 -56q-78 -65 -147 -65q-55 0 -103.5 25.5t-73 37t-46 11.5t-36 -8.5t-26.5 -18.5q-34 -27 -59.5 -27t-41.5 18.5t-16 39.5zM791 639q0 25 21.5 46.5t53 21.5t56.5 -35l329 -504h4q-8 244 -8 293v899q0 31 21.5 52.5 t51.5 21.5t50.5 -21.5t20.5 -52.5v-1233q0 -53 -34 -90t-78 -37q-83 0 -128 68l-348 528q-12 18 -12 43z" />
<glyph unicode="&#xd2;" d="M150 551q-27 375 56 555q98 213 310 302q105 44 227 44q242 0 411 -165q167 -162 183 -404q26 -354 -45 -531q-73 -182 -235 -282q-119 -74 -211 -74q-27 0 -47.5 19.5t-20.5 46t17.5 46t40.5 23.5q148 27 244 143q96 117 112 280t4 291t-49 208t-95 137 q-127 123 -309 123q-181 0 -307 -123q-125 -121 -141 -297t-4 -299t39.5 -193.5t73.5 -126.5q98 -115 247 -143q23 -4 40.5 -23.5t17.5 -46.5t-20.5 -46t-38.5 -19q-101 0 -200.5 61.5t-159.5 132.5q-124 147 -140 361zM449 1742q0 32 17 49t37.5 17t37.5 -8l278 -143 q33 -19 33 -50.5t-17.5 -49t-37.5 -17.5t-37 8l-279 144q-32 18 -32 50z" />
<glyph unicode="&#xd3;" d="M150 551q-27 375 56 555q98 213 310 302q105 44 227 44q242 0 411 -165q167 -162 183 -404q26 -354 -45 -531q-73 -182 -235 -282q-119 -74 -211 -74q-27 0 -47.5 19.5t-20.5 46t17.5 46t40.5 23.5q148 27 244 143q96 117 112 280t4 291t-49 208t-95 137 q-127 123 -309 123q-181 0 -307 -123q-125 -121 -141 -297t-4 -299t39.5 -193.5t73.5 -126.5q98 -115 247 -143q23 -4 40.5 -23.5t17.5 -46.5t-20.5 -46t-38.5 -19q-101 0 -200.5 61.5t-159.5 132.5q-124 147 -140 361zM612 1598q0 40 33 59l279 143q16 8 36.5 8t38 -17 t17.5 -39q0 -41 -33 -60l-278 -144q-16 -8 -37 -8t-38.5 17.5t-17.5 40.5z" />
<glyph unicode="&#xd4;" d="M150 551q-27 375 56 555q98 213 310 302q105 44 227 44q242 0 411 -165q167 -162 183 -404q26 -354 -45 -531q-73 -182 -235 -282q-119 -74 -211 -74q-27 0 -47.5 19.5t-20.5 46t17.5 46t40.5 23.5q148 27 244 143q96 117 112 280t4 291t-49 208t-95 137 q-127 123 -309 123q-181 0 -307 -123q-125 -121 -141 -297t-4 -299t39.5 -193.5t73.5 -126.5q98 -115 247 -143q23 -4 40.5 -23.5t17.5 -46.5t-20.5 -46t-38.5 -19q-101 0 -200.5 61.5t-159.5 132.5q-124 147 -140 361zM475 1591q0 32 27 56l184 137q28 22 50 22 q26 0 63 -22l186 -137q27 -22 27 -49.5t-16.5 -45.5t-41 -18t-45.5 14l-166 125l-165 -125q-20 -14 -45 -14t-41.5 18.5t-16.5 38.5z" />
<glyph unicode="&#xd5;" d="M150 551q-27 375 56 555q98 213 310 302q105 44 227 44q242 0 411 -165q167 -162 183 -404q26 -354 -45 -531q-73 -182 -235 -282q-119 -74 -211 -74q-27 0 -47.5 19.5t-20.5 46t17.5 46t40.5 23.5q148 27 244 143q96 117 112 280t4 291t-49 208t-95 137 q-127 123 -309 123q-181 0 -307 -123q-125 -121 -141 -297t-4 -299t39.5 -193.5t73.5 -126.5q98 -115 247 -143q23 -4 40.5 -23.5t17.5 -46.5t-20.5 -46t-38.5 -19q-101 0 -200.5 61.5t-159.5 132.5q-124 147 -140 361zM455 1612q0 29 26 55q80 66 148 66q58 0 103 -26 q85 -48 112.5 -48t42 8t27.5 19q31 26 57.5 26t42.5 -18.5t16 -38.5q0 -27 -26 -56q-78 -65 -147 -65q-55 0 -104 26q-92 48 -116 48t-38.5 -8.5t-26.5 -18.5q-34 -27 -59.5 -27t-41.5 18.5t-16 39.5z" />
<glyph unicode="&#xd6;" d="M150 551q-27 375 56 555q98 213 310 302q105 44 227 44q242 0 411 -165q167 -162 183 -404q26 -354 -45 -531q-73 -182 -235 -282q-119 -74 -211 -74q-27 0 -47.5 19.5t-20.5 46t17.5 46t40.5 23.5q148 27 244 143q96 117 112 280t4 291t-49 208t-95 137 q-127 123 -309 123q-181 0 -307 -123q-125 -121 -141 -297t-4 -299t39.5 -193.5t73.5 -126.5q98 -115 247 -143q23 -4 40.5 -23.5t17.5 -46.5t-20.5 -46t-38.5 -19q-101 0 -200.5 61.5t-159.5 132.5q-124 147 -140 361zM463 1656q0 42 29.5 71.5t71.5 29.5t71 -29.5 t29 -71.5t-29 -71t-71 -29t-71.5 29t-29.5 71zM811 1656q0 42 29.5 71.5t71.5 29.5t71 -29.5t29 -71.5t-29 -71t-71 -29t-71.5 29t-29.5 71z" />
<glyph unicode="&#xd7;" horiz-adv-x="1286" d="M174 1117.5q0 29.5 22 51t51 20.5t52 -24l346 -346l342 342q23 23 53.5 23t52 -23t19.5 -51.5t-22 -50.5l-342 -340l342 -338q23 -20 23.5 -50t-21 -52.5t-52 -22.5t-53.5 23l-342 339l-346 -346q-23 -23 -52.5 -23.5t-50.5 20.5t-21.5 51t22.5 53l346 346l-346 346 q-23 23 -23 52.5z" />
<glyph unicode="&#xd8;" d="M142 818.5q7 136.5 26.5 194.5t37.5 97q30 70 77 70q29 0 50 -21.5t21 -44t-13 -52.5q-47 -109 -52 -187q-11 -195 0 -301q18 -191 121 -306l565 979q-102 63 -209 63q-195 1 -309 -104q-18 -18 -47 -18t-50.5 21.5t-21.5 52.5t24 51q158 137 381 137q169 0 304 -80 l28 47q14 25 41 32t49 -7q23 -14 29 -40t-8 -50l-35 -60q170 -162 190 -409q11 -151 3.5 -278.5t-27 -186t-36.5 -98.5q-29 -68 -77 -68q-29 0 -50 21.5t-21 44t13 52.5q47 106 51 186q12 196 1 302q-18 189 -121 305l-565 -979q102 -63 208 -63q198 0 310 104q18 18 47 19 q29 0 50.5 -21.5t21.5 -52.5t-25 -51q-158 -137 -381 -137q-166 0 -303 79l-26 -47q-14 -25 -40 -31t-48 7q-23 12 -30 39.5t7 50.5l35 59h-2q-169 160 -191 410q-10 133 -3 269.5z" />
<glyph unicode="&#xd9;" horiz-adv-x="1531" d="M195 573v787q0 31 21.5 52.5t51 21.5t50 -21.5t20.5 -52.5v-780q0 -209 122 -336q116 -123 296 -123t297 104q18 18 47 19q29 0 50 -21.5t21 -52.5t-24 -51q-158 -137 -381 -137q-247 0 -408 164q-163 164 -163 427zM471 1742.5q0 31.5 17.5 48.5t37.5 17t37 -8l279 -143 q32 -18 32 -50t-17 -49.5t-37.5 -17.5t-37.5 8l-278 144q-33 19 -33 50.5zM1147 328.5q0 21.5 4 33.5q43 94 43 218v780q0 31 21.5 52.5t51.5 21.5t50 -21.5t20 -52.5v-787q0 -145 -53 -264q-18 -45 -56 -45t-59.5 21.5t-21.5 43z" />
<glyph unicode="&#xda;" horiz-adv-x="1531" d="M195 573v787q0 31 21.5 52.5t51 21.5t50 -21.5t20.5 -52.5v-780q0 -209 122 -336q116 -123 296 -123t297 104q18 18 47 19q29 0 50 -21.5t21 -52.5t-24 -51q-158 -137 -381 -137q-247 0 -408 164q-163 164 -163 427zM649 1598q0 40 33 59l279 143q16 8 36.5 8t38 -17 t17.5 -39q0 -41 -33 -60l-279 -144q-16 -8 -36.5 -8t-38 17.5t-17.5 40.5zM1147 328.5q0 21.5 4 33.5q43 94 43 218v780q0 31 21.5 52.5t51.5 21.5t50 -21.5t20 -52.5v-787q0 -145 -53 -264q-18 -45 -56 -45t-59.5 21.5t-21.5 43z" />
<glyph unicode="&#xdb;" horiz-adv-x="1531" d="M195 573v787q0 31 21.5 52.5t51 21.5t50 -21.5t20.5 -52.5v-780q0 -209 122 -336q116 -123 296 -123t297 104q18 18 47 19q29 0 50 -21.5t21 -52.5t-24 -51q-158 -137 -381 -137q-247 0 -408 164q-163 164 -163 427zM498 1591q0 33 26 56l185 137q28 22 51 22 q26 0 61 -22l187 -137q26 -21 26 -49t-16.5 -46t-40.5 -18t-45 14l-166 125l-166 -125q-20 -14 -45 -14t-41 18.5t-16 38.5zM1147 328.5q0 21.5 4 33.5q43 94 43 218v780q0 31 21.5 52.5t51.5 21.5t50 -21.5t20 -52.5v-787q0 -145 -53 -264q-18 -45 -56 -45t-59.5 21.5 t-21.5 43z" />
<glyph unicode="&#xdc;" horiz-adv-x="1531" d="M195 573v787q0 31 21.5 52.5t51 21.5t50 -21.5t20.5 -52.5v-780q0 -209 122 -336q116 -123 296 -123t297 104q18 18 47 19q29 0 50 -21.5t21 -52.5t-24 -51q-158 -137 -381 -137q-247 0 -408 164q-163 164 -163 427zM492 1656q0 42 29.5 71.5t71.5 29.5t70.5 -29.5 t28.5 -71.5t-28.5 -71t-70.5 -29t-71.5 29t-29.5 71zM840 1656q0 42 29.5 71.5t71.5 29.5t70.5 -29.5t28.5 -71.5t-28.5 -71t-70.5 -29t-71.5 29t-29.5 71zM1147 328.5q0 21.5 4 33.5q43 94 43 218v780q0 31 21.5 52.5t51.5 21.5t50 -21.5t20 -52.5v-787q0 -145 -53 -264 q-18 -45 -56 -45t-59.5 21.5t-21.5 43z" />
<glyph unicode="&#xdd;" horiz-adv-x="1318" d="M36 1367.5q3 29.5 25.5 48.5t53 15t49.5 -26l495 -619l496 619q18 23 49 27t53.5 -15.5t25.5 -49.5t-17 -54l-480 -590q-25 -31 -40 -52.5t-15 -64.5v-532q0 -31 -20.5 -52.5t-50.5 -21.5t-51 22.5t-21 51.5v532q0 43 -16.5 65.5t-41.5 53.5l-477 588q-20 25 -17 54.5z M594 1598q0 41 33 59l278 143q16 8 37 8t38 -17t17 -39q0 -42 -32 -60l-279 -144q-16 -8 -37 -8t-38 17.5t-17 40.5z" />
<glyph unicode="&#xde;" horiz-adv-x="1316" d="M215 74v1286q0 31 21.5 52.5t51.5 21.5t50 -21.5t20 -52.5v-201h400q193 0 320 -115q136 -123 136 -325q0 -209 -134 -329q-129 -116 -339 -116h-254q-33 0 -54 20.5t-21 51.5t21.5 50.5t53.5 19.5h254q248 0 307 178q19 55 19 123q0 135 -77 219t-238 84h-394v-946 q0 -31 -20.5 -52.5t-50 -21.5t-51 22.5t-21.5 51.5z" />
<glyph unicode="&#xdf;" horiz-adv-x="2523" d="M123 189.5q0 36.5 22.5 57.5t47 21t47.5 -14q94 -68 161 -91q119 -42 274 -42t246 71.5t91 198.5q0 94 -58 149q-63 58 -221 93q-23 4 -39 24.5t-16 47t21.5 48t42 21.5t81.5 -14.5t133 -47t117 -76.5q86 -84 86 -228q0 -196 -131 -310q-136 -116 -369 -116 q-297 0 -503 151q-33 20 -33 56.5zM133 1057q0 179 133 289q129 106 344 106q123 0 229.5 -31.5t172.5 -85.5q27 -23 26.5 -55.5t-22 -53t-43.5 -20.5t-34.5 7.5t-48.5 29t-109.5 46t-168 24.5t-158 -20.5t-102.5 -55.5q-71 -64 -71 -176q0 -101 60 -151q64 -54 228 -95 q23 -6 39.5 -25.5t16.5 -48.5t-26 -52t-69 -13q-205 47 -301 136t-96 245zM1384 189.5q0 36.5 23 57.5t47 21t47 -14q94 -68 162 -91q120 -42 274 -42t245 71.5t91 198.5q0 95 -58 149q-64 59 -220 93q-23 4 -39.5 24.5t-16.5 47t21.5 48t42 21.5t82 -14.5t133.5 -47 t117 -76.5q86 -84 86 -228q0 -195 -133 -310q-135 -116 -367 -116q-296 0 -504 151q-33 20 -33 56.5zM1395 1057q0 180 131 289q130 106 346 106q123 0 229.5 -31.5t171.5 -85.5q27 -23 27 -55.5t-21.5 -53t-44 -20.5t-34.5 8l-23 13q-142 86 -301 86q-177 0 -262 -76 q-72 -65 -72 -176q0 -100 60 -151q63 -53 229 -95q23 -6 39 -25.5t16 -48.5t-25.5 -52t-68.5 -13q-205 47 -301 136t-96 245z" />
<glyph unicode="&#xe0;" horiz-adv-x="1470" d="M57 98l488 1225q23 57 74 93t116 36q66 0 117 -36t74 -93l209 -526q10 -27 -1.5 -55.5t-39.5 -39.5q-29 -10 -56.5 1.5t-38.5 39.5l-208 529q-14 37 -56 37q-41 0 -55 -37l-252 -637h604q167 0 221 -135l160 -402q10 -27 -1 -55.5t-40 -38.5t-56.5 1t-37.5 40l-160 401 q-18 47 -67 48h-680l-178 -449q-10 -29 -38 -40t-57 -1t-40 39t-1 55zM420 1744.5q0 31.5 17.5 48.5t37.5 17t37 -8l279 -143q32 -18 32 -50t-17.5 -49.5t-37.5 -17.5t-37 8l-278 144q-33 19 -33 50.5z" />
<glyph unicode="&#xe1;" horiz-adv-x="1470" d="M57 98l488 1225q23 57 74 93t116 36q66 0 117 -36t74 -93l209 -526q10 -27 -1.5 -55.5t-39.5 -39.5q-29 -10 -56.5 1.5t-38.5 39.5l-208 529q-14 37 -56 37q-41 0 -55 -37l-252 -637h604q167 0 221 -135l160 -402q10 -27 -1 -55.5t-40 -38.5t-56.5 1t-37.5 40l-160 401 q-18 47 -67 48h-680l-178 -449q-10 -29 -38 -40t-57 -1t-40 39t-1 55zM606 1600q0 40 33 59l279 143q16 8 36.5 8t38 -17t17.5 -39q0 -41 -33 -60l-279 -144q-16 -8 -36.5 -8t-38 17.5t-17.5 40.5z" />
<glyph unicode="&#xe2;" horiz-adv-x="1470" d="M57 98l488 1225q23 57 74 93t116 36q66 0 117 -36t74 -93l209 -526q10 -27 -1.5 -55.5t-39.5 -39.5q-29 -10 -56.5 1.5t-38.5 39.5l-208 529q-14 37 -56 37q-41 0 -55 -37l-252 -637h604q167 0 221 -135l160 -402q10 -27 -1 -55.5t-40 -38.5t-56.5 1t-37.5 40l-160 401 q-18 47 -67 48h-680l-178 -449q-10 -29 -38 -40t-57 -1t-40 39t-1 55zM465 1593q0 34 27 56l184 137q28 22 50 22q27 0 62 -22l187 -137q26 -21 26 -49t-16 -46t-40.5 -18t-45.5 14l-166 125l-166 -125q-20 -14 -45 -14t-41 18.5t-16 38.5z" />
<glyph unicode="&#xe3;" horiz-adv-x="1470" d="M57 98l488 1225q23 57 74 93t116 36q66 0 117 -36t74 -93l209 -526q10 -27 -1.5 -55.5t-39.5 -39.5q-29 -10 -56.5 1.5t-38.5 39.5l-208 529q-14 37 -56 37q-41 0 -55 -37l-252 -637h604q167 0 221 -135l160 -402q10 -27 -1 -55.5t-40 -38.5t-56.5 1t-37.5 40l-160 401 q-18 47 -67 48h-680l-178 -449q-10 -29 -38 -40t-57 -1t-40 39t-1 55zM440 1614q0 28 27 55q80 66 147 66q59 0 104 -26q85 -48 112.5 -48t42 8t26.5 19q30 26 57 26t43.5 -18.5t16.5 -38.5q0 -28 -27 -55q-80 -66 -146 -66q-53 0 -103 25.5t-74.5 37t-46 11.5t-36 -8.5 t-26.5 -18.5q-32 -27 -58 -27t-42.5 18.5t-16.5 39.5z" />
<glyph unicode="&#xe4;" horiz-adv-x="1470" d="M57 98l488 1225q23 57 74 93t116 36q66 0 117 -36t74 -93l209 -526q10 -27 -1.5 -55.5t-39.5 -39.5q-29 -10 -56.5 1.5t-38.5 39.5l-208 529q-14 37 -56 37q-41 0 -55 -37l-252 -637h604q167 0 221 -135l160 -402q10 -27 -1 -55.5t-40 -38.5t-56.5 1t-37.5 40l-160 401 q-18 47 -67 48h-680l-178 -449q-10 -29 -38 -40t-57 -1t-40 39t-1 55zM459 1656q0 42 29.5 71.5t71.5 29.5t70.5 -29.5t28.5 -71.5t-28.5 -71t-70.5 -29t-71.5 29t-29.5 71zM807 1656q0 42 29.5 71.5t71.5 29.5t71 -29.5t29 -71.5t-29 -71t-71 -29t-71.5 29t-29.5 71z" />
<glyph unicode="&#xe5;" horiz-adv-x="1470" d="M51 65.5q0 20.5 6 32.5l488 1225q23 57 74 93t116 36q66 0 117 -36t74 -93l209 -526q4 -16 4 -35t-19.5 -42.5t-47.5 -23.5q-54 0 -73 47l-208 529q-14 37 -56 37q-41 0 -55 -37l-252 -637h604q167 0 221 -135l160 -402q4 -16 4 -34.5t-19.5 -42t-47.5 -23.5 q-55 0 -72 47l-160 401q-18 47 -67 48h-680l-178 -449q-20 -47 -60.5 -47t-61 23.5t-20.5 44zM545 1718q0 77 51 132q56 59 141 59q82 0 137 -59q52 -56 52 -132q0 -41 -20.5 -86t-55.5 -66q-63 -38 -88 5q-10 14 -9 37.5t23 33.5q45 28 45 67.5t-21.5 67t-64.5 27.5 t-64.5 -27.5t-21.5 -56.5q0 -47 45 -78q20 -10 24.5 -33.5t-5.5 -38.5t-34 -20.5t-40 4.5q-94 59 -94 164z" />
<glyph unicode="&#xe6;" horiz-adv-x="2072" d="M68 98l579 1153q45 90 101.5 136.5t154.5 46.5h979q31 0 52.5 -20.5t21.5 -50.5t-22.5 -51.5t-51.5 -21.5h-676v-397q0 -31 -20.5 -52.5t-50 -21.5t-51 22.5t-21.5 51.5v397h-178q-37 0 -55.5 -14t-34.5 -49l-252 -502h391q29 0 51.5 -20.5t22.5 -50.5t-21.5 -50 t-52.5 -20h-463l-268 -539q-12 -29 -39 -40t-55 -1q-29 10 -40.5 39t-0.5 55zM1063 127v463q0 84 61 144q58 59 142 59h600q31 0 52 -19.5t21 -49.5t-22.5 -51.5t-50.5 -21.5h-598q-27 0 -44.5 -17.5t-17.5 -43.5v-447h680q29 0 51.5 -21.5t22.5 -51t-21.5 -50t-52.5 -20.5 h-694q-63 0 -96 37t-33 90z" />
<glyph unicode="&#xe7;" horiz-adv-x="1384" d="M145 610q0 35 21.5 56.5t50.5 21.5t50.5 -18.5t21.5 -53.5q4 -213 129 -352q127 -143 325 -143q131 0 232.5 69.5t148.5 186.5q21 47 68 47q25 0 47.5 -19.5t22.5 -42t-18 -65.5t-63.5 -102.5t-104.5 -104.5q-125 -94 -283 -106l-31 -84q78 -4 126 -51.5t48 -108.5 t-20.5 -100t-55.5 -69q-67 -58 -168 -89q-29 -10 -57.5 3t-28.5 54q0 38 47 60q131 41 152 95q6 15 6 32.5t-15.5 39t-47.5 21.5l-62 -8q-31 0 -49.5 25.5t-5.5 58.5l43 123q-235 24 -384 204q-149 181 -145 420zM145 823q-2 129 42 244t124 200t190.5 135t219 50 t188.5 -24.5t147 -70.5q139 -96 199 -249q19 -50 -9.5 -74t-54.5 -24q-45 0 -67 47q-47 117 -148.5 186.5t-218 69.5t-198.5 -38t-141 -105q-125 -139 -129 -353q0 -35 -21.5 -53.5t-50.5 -18.5t-50.5 21.5t-21.5 56.5z" />
<glyph unicode="&#xe8;" horiz-adv-x="1288" d="M215 127v463q0 84 61 144q58 59 142 59h633q31 0 52 -19.5t21 -49.5t-22.5 -51.5t-50.5 -21.5h-631q-27 0 -44.5 -17.5t-17.5 -43.5v-447h713q29 0 51.5 -21.5t22.5 -51t-21.5 -50t-52.5 -20.5h-727q-63 0 -96 37t-33 90zM215 893v414q0 53 33 90t96 37h723 q31 0 52.5 -20.5t21.5 -50.5t-22.5 -51.5t-51.5 -21.5h-709v-397q0 -31 -20.5 -52.5t-50 -21.5t-51 22.5t-21.5 51.5zM438 1742.5q0 31.5 17.5 48.5t38 17t36.5 -8l279 -143q33 -19 33 -50.5t-17.5 -49t-38 -17.5t-36.5 8l-279 144q-33 19 -33 50.5z" />
<glyph unicode="&#xe9;" horiz-adv-x="1288" d="M215 127v463q0 84 61 144q58 59 142 59h633q31 0 52 -19.5t21 -49.5t-22.5 -51.5t-50.5 -21.5h-631q-27 0 -44.5 -17.5t-17.5 -43.5v-447h713q29 0 51.5 -21.5t22.5 -51t-21.5 -50t-52.5 -20.5h-727q-63 0 -96 37t-33 90zM215 893v414q0 53 33 90t96 37h723 q31 0 52.5 -20.5t21.5 -50.5t-22.5 -51.5t-51.5 -21.5h-709v-397q0 -31 -20.5 -52.5t-50 -21.5t-51 22.5t-21.5 51.5zM530 1598q0 40 33 59l279 143q16 8 36.5 8t38 -17t17.5 -39q0 -41 -33 -60l-278 -144q-16 -8 -37 -8t-38.5 17.5t-17.5 40.5z" />
<glyph unicode="&#xea;" horiz-adv-x="1288" d="M215 127v463q0 84 61 144q58 59 142 59h633q31 0 52 -19.5t21 -49.5t-22.5 -51.5t-50.5 -21.5h-631q-27 0 -44.5 -17.5t-17.5 -43.5v-447h713q29 0 51.5 -21.5t22.5 -51t-21.5 -50t-52.5 -20.5h-727q-63 0 -96 37t-33 90zM215 893v414q0 53 33 90t96 37h723 q31 0 52.5 -20.5t21.5 -50.5t-22.5 -51.5t-51.5 -21.5h-709v-397q0 -31 -20.5 -52.5t-50 -21.5t-51 22.5t-21.5 51.5zM418 1591q0 33 26 56l185 137q28 22 51 22q26 0 61 -22l187 -137q26 -21 26 -49t-16 -46t-40.5 -18t-45.5 14l-166 125l-166 -125q-20 -14 -45 -14 t-41 18.5t-16 38.5z" />
<glyph unicode="&#xeb;" horiz-adv-x="1288" d="M215 127v463q0 84 61 144q58 59 142 59h633q31 0 52 -19.5t21 -49.5t-22.5 -51.5t-50.5 -21.5h-631q-27 0 -44.5 -17.5t-17.5 -43.5v-447h713q29 0 51.5 -21.5t22.5 -51t-21.5 -50t-52.5 -20.5h-727q-63 0 -96 37t-33 90zM215 893v414q0 53 33 90t96 37h723 q31 0 52.5 -20.5t21.5 -50.5t-22.5 -51.5t-51.5 -21.5h-709v-397q0 -31 -20.5 -52.5t-50 -21.5t-51 22.5t-21.5 51.5zM418 1656q0 42 29.5 71.5t71.5 29.5t70.5 -29.5t28.5 -71.5t-28.5 -71t-70.5 -29t-71.5 29t-29.5 71zM766 1656q0 42 29.5 71.5t71.5 29.5t71 -29.5 t29 -71.5t-29 -71t-71 -29t-71.5 29t-29.5 71z" />
<glyph unicode="&#xec;" horiz-adv-x="573" d="M86 1744.5q0 31.5 17.5 48.5t37.5 17t37 -8l279 -143q32 -18 32 -50t-17 -49.5t-37.5 -17.5t-37.5 8l-278 144q-33 19 -33 50.5zM215 74v1286q0 31 21.5 52.5t51.5 21.5t50 -21.5t20 -52.5v-1286q0 -31 -20.5 -52.5t-50 -21.5t-51 22.5t-21.5 51.5z" />
<glyph unicode="&#xed;" horiz-adv-x="573" d="M86 1600q0 41 33 59l278 143q16 8 37 8t38 -17t17 -39q0 -42 -32 -60l-279 -144q-16 -8 -37 -8t-38 17.5t-17 40.5zM215 74v1286q0 31 21.5 52.5t51.5 21.5t50 -21.5t20 -52.5v-1286q0 -31 -20.5 -52.5t-50 -21.5t-51 22.5t-21.5 51.5z" />
<glyph unicode="&#xee;" horiz-adv-x="573" d="M18 1593q0 32 27 56l184 137q29 22 51 22q27 0 62 -22l186 -137q27 -22 27 -49.5t-16.5 -45.5t-40.5 -18t-45 14l-166 125l-166 -125q-20 -14 -45 -14t-41.5 18.5t-16.5 38.5zM215 74v1286q0 31 21.5 52.5t51.5 21.5t50 -21.5t20 -52.5v-1286q0 -31 -20.5 -52.5 t-50 -21.5t-51 22.5t-21.5 51.5z" />
<glyph unicode="&#xef;" horiz-adv-x="573" d="M10 1656q0 42 30 71.5t72 29.5t70.5 -29.5t28.5 -71.5t-28.5 -71t-70.5 -29t-72 29t-30 71zM215 74v1286q0 31 21.5 52.5t51.5 21.5t50 -21.5t20 -52.5v-1286q0 -31 -20.5 -52.5t-50 -21.5t-51 22.5t-21.5 51.5zM358 1656q0 42 30 71.5t72 29.5t70.5 -29.5t28.5 -71.5 t-28.5 -71t-70.5 -29t-72 29t-30 71z" />
<glyph unicode="&#xf0;" d="M0 711q0 29 19.5 49t50.5 20h145v527q0 53 33 90t96 37h361q295 0 465 -172q156 -158 169 -435q6 -111 0 -231.5t-49 -232t-122 -192.5q-165 -171 -463 -171h-220q-31 0 -52 21.5t-21 51.5t21.5 50t51.5 20h217q353 0 456 274q53 140 38 410q-19 337 -280 431 q-91 32 -214 32h-344v-510h342q31 0 50.5 -20.5t19.5 -48.5q0 -29 -19.5 -49.5t-50.5 -20.5h-342v-567q0 -31 -20.5 -52.5t-50 -21.5t-51 22.5t-21.5 51.5v567h-145q-31 0 -50.5 20.5t-19.5 49.5z" />
<glyph unicode="&#xf1;" horiz-adv-x="1605" d="M215 74v1226q0 55 35 94.5t100.5 39.5t116.5 -72l344 -522q12 -18 12 -43t-21.5 -46.5t-54 -21.5t-55.5 33l-336 514h-4q6 -183 6 -301v-901q0 -31 -20.5 -52.5t-50 -21.5t-51 22.5t-21.5 51.5zM547 1612q0 29 26 55q80 66 148 66q58 0 103 -26q85 -48 112.5 -48t42 8 t27.5 19q31 26 57.5 26t42.5 -18.5t16 -38.5q0 -27 -26 -56q-78 -65 -147 -65q-55 0 -103.5 25.5t-73 37t-46 11.5t-36 -8.5t-26.5 -18.5q-34 -27 -59.5 -27t-41.5 18.5t-16 39.5zM791 639q0 25 21.5 46.5t53 21.5t56.5 -35l329 -504h4q-8 244 -8 293v899q0 31 21.5 52.5 t51.5 21.5t50.5 -21.5t20.5 -52.5v-1233q0 -53 -34 -90t-78 -37q-83 0 -128 68l-348 528q-12 18 -12 43z" />
<glyph unicode="&#xf2;" d="M150 551q-27 375 56 555q98 213 310 302q105 44 227 44q242 0 411 -165q167 -162 183 -404q26 -354 -45 -531q-73 -182 -235 -282q-119 -74 -211 -74q-27 0 -47.5 19.5t-20.5 46t17.5 46t40.5 23.5q148 27 244 143q96 117 112 280t4 291t-49 208t-95 137 q-127 123 -309 123q-181 0 -307 -123q-125 -121 -141 -297t-4 -299t39.5 -193.5t73.5 -126.5q98 -115 247 -143q23 -4 40.5 -23.5t17.5 -46.5t-20.5 -46t-38.5 -19q-101 0 -200.5 61.5t-159.5 132.5q-124 147 -140 361zM449 1742q0 32 17 49t37.5 17t37.5 -8l278 -143 q33 -19 33 -50.5t-17.5 -49t-37.5 -17.5t-37 8l-279 144q-32 18 -32 50z" />
<glyph unicode="&#xf3;" d="M150 551q-27 375 56 555q98 213 310 302q105 44 227 44q242 0 411 -165q167 -162 183 -404q26 -354 -45 -531q-73 -182 -235 -282q-119 -74 -211 -74q-27 0 -47.5 19.5t-20.5 46t17.5 46t40.5 23.5q148 27 244 143q96 117 112 280t4 291t-49 208t-95 137 q-127 123 -309 123q-181 0 -307 -123q-125 -121 -141 -297t-4 -299t39.5 -193.5t73.5 -126.5q98 -115 247 -143q23 -4 40.5 -23.5t17.5 -46.5t-20.5 -46t-38.5 -19q-101 0 -200.5 61.5t-159.5 132.5q-124 147 -140 361zM612 1598q0 40 33 59l279 143q16 8 36.5 8t38 -17 t17.5 -39q0 -41 -33 -60l-278 -144q-16 -8 -37 -8t-38.5 17.5t-17.5 40.5z" />
<glyph unicode="&#xf4;" d="M150 551q-27 375 56 555q98 213 310 302q105 44 227 44q242 0 411 -165q167 -162 183 -404q26 -354 -45 -531q-73 -182 -235 -282q-119 -74 -211 -74q-27 0 -47.5 19.5t-20.5 46t17.5 46t40.5 23.5q148 27 244 143q96 117 112 280t4 291t-49 208t-95 137 q-127 123 -309 123q-181 0 -307 -123q-125 -121 -141 -297t-4 -299t39.5 -193.5t73.5 -126.5q98 -115 247 -143q23 -4 40.5 -23.5t17.5 -46.5t-20.5 -46t-38.5 -19q-101 0 -200.5 61.5t-159.5 132.5q-124 147 -140 361zM475 1591q0 32 27 56l184 137q28 22 50 22 q26 0 63 -22l186 -137q27 -22 27 -49.5t-16.5 -45.5t-41 -18t-45.5 14l-166 125l-165 -125q-20 -14 -45 -14t-41.5 18.5t-16.5 38.5z" />
<glyph unicode="&#xf5;" d="M150 551q-27 375 56 555q98 213 310 302q105 44 227 44q242 0 411 -165q167 -162 183 -404q26 -354 -45 -531q-73 -182 -235 -282q-119 -74 -211 -74q-27 0 -47.5 19.5t-20.5 46t17.5 46t40.5 23.5q148 27 244 143q96 117 112 280t4 291t-49 208t-95 137 q-127 123 -309 123q-181 0 -307 -123q-125 -121 -141 -297t-4 -299t39.5 -193.5t73.5 -126.5q98 -115 247 -143q23 -4 40.5 -23.5t17.5 -46.5t-20.5 -46t-38.5 -19q-101 0 -200.5 61.5t-159.5 132.5q-124 147 -140 361zM455 1612q0 29 26 55q80 66 148 66q58 0 103 -26 q85 -48 112.5 -48t42 8t27.5 19q31 26 57.5 26t42.5 -18.5t16 -38.5q0 -27 -26 -56q-78 -65 -147 -65q-55 0 -104 26q-92 48 -116 48t-38.5 -8.5t-26.5 -18.5q-34 -27 -59.5 -27t-41.5 18.5t-16 39.5z" />
<glyph unicode="&#xf6;" d="M150 551q-27 375 56 555q98 213 310 302q105 44 227 44q242 0 411 -165q167 -162 183 -404q26 -354 -45 -531q-73 -182 -235 -282q-119 -74 -211 -74q-27 0 -47.5 19.5t-20.5 46t17.5 46t40.5 23.5q148 27 244 143q96 117 112 280t4 291t-49 208t-95 137 q-127 123 -309 123q-181 0 -307 -123q-125 -121 -141 -297t-4 -299t39.5 -193.5t73.5 -126.5q98 -115 247 -143q23 -4 40.5 -23.5t17.5 -46.5t-20.5 -46t-38.5 -19q-101 0 -200.5 61.5t-159.5 132.5q-124 147 -140 361zM463 1656q0 42 29.5 71.5t71.5 29.5t71 -29.5 t29 -71.5t-29 -71t-71 -29t-71.5 29t-29.5 71zM811 1656q0 42 29.5 71.5t71.5 29.5t71 -29.5t29 -71.5t-29 -71t-71 -29t-71.5 29t-29.5 71z" />
<glyph unicode="&#xf7;" horiz-adv-x="1286" d="M123 718q0 30 21.5 50t52.5 20h893q31 0 52 -20t21 -50t-22.5 -51.5t-50.5 -21.5h-893q-31 0 -52.5 21.5t-21.5 51.5zM545 346q0 41 28.5 69.5t69.5 28.5t69.5 -28.5t28.5 -69.5t-28.5 -69.5t-69.5 -28.5t-69.5 28.5t-28.5 69.5zM545 1090q0 41 28.5 69.5t69.5 28.5 t69.5 -29t28.5 -69q0 -41 -28.5 -70t-69.5 -29t-69.5 29t-28.5 70z" />
<glyph unicode="&#xf8;" d="M142 818.5q7 136.5 26.5 194.5t37.5 97q30 70 77 70q29 0 50 -21.5t21 -44t-13 -52.5q-47 -109 -52 -187q-11 -195 0 -301q18 -191 121 -306l565 979q-102 63 -209 63q-195 1 -309 -104q-18 -18 -47 -18t-50.5 21.5t-21.5 52.5t24 51q158 137 381 137q169 0 304 -80 l28 47q14 25 41 32t49 -7q23 -14 29 -40t-8 -50l-35 -60q170 -162 190 -409q11 -151 3.5 -278.5t-27 -186t-36.5 -98.5q-29 -68 -77 -68q-29 0 -50 21.5t-21 44t13 52.5q47 106 51 186q12 196 1 302q-18 189 -121 305l-565 -979q102 -63 208 -63q198 0 310 104q18 18 47 19 q29 0 50.5 -21.5t21.5 -52.5t-25 -51q-158 -137 -381 -137q-166 0 -303 79l-26 -47q-14 -25 -40 -31t-48 7q-23 12 -30 39.5t7 50.5l35 59h-2q-169 160 -191 410q-10 133 -3 269.5z" />
<glyph unicode="&#xf9;" horiz-adv-x="1531" d="M195 573v787q0 31 21.5 52.5t51 21.5t50 -21.5t20.5 -52.5v-780q0 -209 122 -336q116 -123 296 -123t297 104q18 18 47 19q29 0 50 -21.5t21 -52.5t-24 -51q-158 -137 -381 -137q-247 0 -408 164q-163 164 -163 427zM471 1742.5q0 31.5 17.5 48.5t37.5 17t37 -8l279 -143 q32 -18 32 -50t-17 -49.5t-37.5 -17.5t-37.5 8l-278 144q-33 19 -33 50.5zM1147 328.5q0 21.5 4 33.5q43 94 43 218v780q0 31 21.5 52.5t51.5 21.5t50 -21.5t20 -52.5v-787q0 -145 -53 -264q-18 -45 -56 -45t-59.5 21.5t-21.5 43z" />
<glyph unicode="&#xfa;" horiz-adv-x="1531" d="M195 573v787q0 31 21.5 52.5t51 21.5t50 -21.5t20.5 -52.5v-780q0 -209 122 -336q116 -123 296 -123t297 104q18 18 47 19q29 0 50 -21.5t21 -52.5t-24 -51q-158 -137 -381 -137q-247 0 -408 164q-163 164 -163 427zM649 1598q0 40 33 59l279 143q16 8 36.5 8t38 -17 t17.5 -39q0 -41 -33 -60l-279 -144q-16 -8 -36.5 -8t-38 17.5t-17.5 40.5zM1147 328.5q0 21.5 4 33.5q43 94 43 218v780q0 31 21.5 52.5t51.5 21.5t50 -21.5t20 -52.5v-787q0 -145 -53 -264q-18 -45 -56 -45t-59.5 21.5t-21.5 43z" />
<glyph unicode="&#xfb;" horiz-adv-x="1531" d="M195 573v787q0 31 21.5 52.5t51 21.5t50 -21.5t20.5 -52.5v-780q0 -209 122 -336q116 -123 296 -123t297 104q18 18 47 19q29 0 50 -21.5t21 -52.5t-24 -51q-158 -137 -381 -137q-247 0 -408 164q-163 164 -163 427zM498 1591q0 33 26 56l185 137q28 22 51 22 q26 0 61 -22l187 -137q26 -21 26 -49t-16.5 -46t-40.5 -18t-45 14l-166 125l-166 -125q-20 -14 -45 -14t-41 18.5t-16 38.5zM1147 328.5q0 21.5 4 33.5q43 94 43 218v780q0 31 21.5 52.5t51.5 21.5t50 -21.5t20 -52.5v-787q0 -145 -53 -264q-18 -45 -56 -45t-59.5 21.5 t-21.5 43z" />
<glyph unicode="&#xfc;" horiz-adv-x="1531" d="M195 573v787q0 31 21.5 52.5t51 21.5t50 -21.5t20.5 -52.5v-780q0 -209 122 -336q116 -123 296 -123t297 104q18 18 47 19q29 0 50 -21.5t21 -52.5t-24 -51q-158 -137 -381 -137q-247 0 -408 164q-163 164 -163 427zM492 1656q0 42 29.5 71.5t71.5 29.5t70.5 -29.5 t28.5 -71.5t-28.5 -71t-70.5 -29t-71.5 29t-29.5 71zM840 1656q0 42 29.5 71.5t71.5 29.5t70.5 -29.5t28.5 -71.5t-28.5 -71t-70.5 -29t-71.5 29t-29.5 71zM1147 328.5q0 21.5 4 33.5q43 94 43 218v780q0 31 21.5 52.5t51.5 21.5t50 -21.5t20 -52.5v-787q0 -145 -53 -264 q-18 -45 -56 -45t-59.5 21.5t-21.5 43z" />
<glyph unicode="&#xfd;" horiz-adv-x="1318" d="M36 1367.5q3 29.5 25.5 48.5t53 15t49.5 -26l495 -619l496 619q18 23 49 27t53.5 -15.5t25.5 -49.5t-17 -54l-480 -590q-25 -31 -40 -52.5t-15 -64.5v-532q0 -31 -20.5 -52.5t-50.5 -21.5t-51 22.5t-21 51.5v532q0 43 -16.5 65.5t-41.5 53.5l-477 588q-20 25 -17 54.5z M594 1598q0 41 33 59l278 143q16 8 37 8t38 -17t17 -39q0 -42 -32 -60l-279 -144q-16 -8 -37 -8t-38 17.5t-17 40.5z" />
<glyph unicode="&#xfe;" horiz-adv-x="1316" d="M215 74v1286q0 31 21.5 52.5t51.5 21.5t50 -21.5t20 -52.5v-201h400q193 0 320 -115q136 -123 136 -325q0 -209 -134 -329q-129 -116 -339 -116h-254q-33 0 -54 20.5t-21 51.5t21.5 50.5t53.5 19.5h254q248 0 307 178q19 55 19 123q0 135 -77 219t-238 84h-394v-946 q0 -31 -20.5 -52.5t-50 -21.5t-51 22.5t-21.5 51.5z" />
<glyph unicode="&#xff;" horiz-adv-x="1318" d="M36 1367.5q3 29.5 25.5 48.5t53 15t49.5 -26l495 -619l496 619q18 23 49 27t53.5 -15.5t25.5 -49.5t-17 -54l-480 -590q-25 -31 -40 -52.5t-15 -64.5v-532q0 -31 -20.5 -52.5t-50.5 -21.5t-51 22.5t-21 51.5v532q0 43 -16.5 65.5t-41.5 53.5l-477 588q-20 25 -17 54.5z M383 1656q0 42 29.5 71.5t71.5 29.5t71 -29.5t29 -71.5t-29 -71t-71 -29t-71.5 29t-29.5 71zM731 1656q0 42 29.5 71.5t71.5 29.5t71 -29.5t29 -71.5t-29 -71t-71 -29t-71.5 29t-29.5 71z" />
<glyph unicode="&#x152;" horiz-adv-x="2201" d="M147 606q-6 111 0 231.5t50.5 234.5t124.5 199q172 181 471 181q79 0 165 -6q172 -12 238 -12h784q31 0 52.5 -20.5t21.5 -50.5t-22.5 -51.5t-51.5 -21.5h-708v-397q0 -31 -20.5 -52.5t-50.5 -21.5t-51.5 22.5t-21.5 51.5v397q-43 0 -118.5 7.5t-206.5 10.5t-223.5 -32 t-153.5 -100q-123 -132 -135 -349q-15 -268 37 -412q64 -176 241 -245q90 -35 193 -35t221 27q31 8 56.5 -6.5t31.5 -42.5q6 -29 -11.5 -51.5t-57.5 -35.5q-94 -30 -234 -30t-255.5 46t-194.5 128q-156 164 -171 436zM1128 127v463q0 85 61 144q60 59 142 59h633 q31 0 52.5 -19.5t21.5 -49.5t-22.5 -51.5t-51.5 -21.5h-631q-27 0 -44 -17.5t-17 -43.5v-447h713q29 0 51 -21.5t22 -51t-21.5 -50t-51.5 -20.5h-728q-63 0 -96 37t-33 90z" />
<glyph unicode="&#x153;" horiz-adv-x="2201" d="M147 606q-6 111 0 231.5t50.5 234.5t124.5 199q172 181 471 181q79 0 165 -6q172 -12 238 -12h784q31 0 52.5 -20.5t21.5 -50.5t-22.5 -51.5t-51.5 -21.5h-708v-397q0 -31 -20.5 -52.5t-50.5 -21.5t-51.5 22.5t-21.5 51.5v397q-43 0 -118.5 7.5t-206.5 10.5t-223.5 -32 t-153.5 -100q-123 -132 -135 -349q-15 -268 37 -412q64 -176 241 -245q90 -35 193 -35t221 27q31 8 56.5 -6.5t31.5 -42.5q6 -29 -11.5 -51.5t-57.5 -35.5q-94 -30 -234 -30t-255.5 46t-194.5 128q-156 164 -171 436zM1128 127v463q0 85 61 144q60 59 142 59h633 q31 0 52.5 -19.5t21.5 -49.5t-22.5 -51.5t-51.5 -21.5h-631q-27 0 -44 -17.5t-17 -43.5v-447h713q29 0 51 -21.5t22 -51t-21.5 -50t-51.5 -20.5h-728q-63 0 -96 37t-33 90z" />
<glyph unicode="&#x178;" horiz-adv-x="1318" d="M36 1367.5q3 29.5 25.5 48.5t53 15t49.5 -26l495 -619l496 619q18 23 49 27t53.5 -15.5t25.5 -49.5t-17 -54l-480 -590q-25 -31 -40 -52.5t-15 -64.5v-532q0 -31 -20.5 -52.5t-50.5 -21.5t-51 22.5t-21 51.5v532q0 43 -16.5 65.5t-41.5 53.5l-477 588q-20 25 -17 54.5z M383 1656q0 42 29.5 71.5t71.5 29.5t71 -29.5t29 -71.5t-29 -71t-71 -29t-71.5 29t-29.5 71zM731 1656q0 42 29.5 71.5t71.5 29.5t71 -29.5t29 -71.5t-29 -71t-71 -29t-71.5 29t-29.5 71z" />
<glyph unicode="&#x2c6;" horiz-adv-x="716" d="M88 1593q0 34 27 56l184 137q28 22 51 22q25 0 62 -22l186 -137q27 -22 27 -49.5t-16.5 -45.5t-41 -18t-45.5 14l-166 125l-166 -125q-20 -14 -44.5 -14t-41 18.5t-16.5 38.5z" />
<glyph unicode="&#x2dc;" horiz-adv-x="716" d="M76 1614q0 29 26 55q80 66 148 66q58 0 103 -26q85 -48 112.5 -48t42 8t26.5 19q32 26 58.5 26t42.5 -18.5t16 -38.5q0 -29 -26 -55q-80 -66 -147 -66q-52 0 -102 25.5t-75 37t-46 11.5t-35.5 -8.5t-27.5 -18.5q-33 -27 -58.5 -27t-41.5 18.5t-16 39.5z" />
<glyph unicode="&#x2000;" horiz-adv-x="954" />
<glyph unicode="&#x2001;" horiz-adv-x="1909" />
<glyph unicode="&#x2002;" horiz-adv-x="954" />
<glyph unicode="&#x2003;" horiz-adv-x="1909" />
<glyph unicode="&#x2004;" horiz-adv-x="636" />
<glyph unicode="&#x2005;" horiz-adv-x="477" />
<glyph unicode="&#x2006;" horiz-adv-x="318" />
<glyph unicode="&#x2007;" horiz-adv-x="318" />
<glyph unicode="&#x2008;" horiz-adv-x="238" />
<glyph unicode="&#x2009;" horiz-adv-x="381" />
<glyph unicode="&#x200a;" horiz-adv-x="106" />
<glyph unicode="&#x2010;" horiz-adv-x="843" d="M184 718q0 30 21.5 50t52.5 20h328q31 0 52 -20t21 -50t-22.5 -51.5t-50.5 -21.5h-328q-31 0 -52.5 21.5t-21.5 51.5z" />
<glyph unicode="&#x2011;" horiz-adv-x="843" d="M184 718q0 30 21.5 50t52.5 20h328q31 0 52 -20t21 -50t-22.5 -51.5t-50.5 -21.5h-328q-31 0 -52.5 21.5t-21.5 51.5z" />
<glyph unicode="&#x2012;" horiz-adv-x="843" d="M184 718q0 30 21.5 50t52.5 20h328q31 0 52 -20t21 -50t-22.5 -51.5t-50.5 -21.5h-328q-31 0 -52.5 21.5t-21.5 51.5z" />
<glyph unicode="&#x2013;" horiz-adv-x="966" d="M-18 718q0 30 21.5 50t51.5 20h856q31 0 52.5 -20t21.5 -50t-22.5 -51.5t-51.5 -21.5h-856q-31 0 -52 21.5t-21 51.5z" />
<glyph unicode="&#x2014;" horiz-adv-x="1708" d="M-20 718q0 30 21.5 50t51.5 20h1602q31 0 52.5 -20t21.5 -50t-23 -51.5t-51 -21.5h-1602q-31 0 -52 21.5t-21 51.5z" />
<glyph unicode="&#x2018;" horiz-adv-x="430" d="M127 1090v79q0 107 55 220q10 29 38 40t56 1q29 -10 41.5 -41t-3 -59t-23.5 -47t-13 -37q-8 -26 -8 -85v-71q0 -31 -21.5 -52.5t-51 -21.5t-50 21.5t-20.5 52.5z" />
<glyph unicode="&#x2019;" horiz-adv-x="430" d="M127 1071q-12 31 3 59t23.5 47t12.5 37q8 38 8 84v72q0 31 21.5 52.5t51.5 21.5t50 -21.5t20 -52.5v-80q0 -109 -55 -219q-10 -29 -37.5 -40t-56.5 -1t-41 41z" />
<glyph unicode="&#x201a;" horiz-adv-x="430" d="M96 -145.5q-12 30.5 3 58.5t23.5 47.5t12.5 37.5q8 36 8 84v72q0 31 21.5 52t51.5 21t50.5 -21.5t20.5 -51.5v-80q0 -109 -56 -219q-10 -29 -37.5 -40.5t-56.5 -0.5q-29 10 -41 40.5z" />
<glyph unicode="&#x201c;" horiz-adv-x="696" d="M127 1090v79q0 107 55 220q10 29 38 40t56 1q29 -10 41.5 -41t-3 -59t-23.5 -47t-13 -37q-8 -26 -8 -85v-71q0 -31 -21.5 -52.5t-51 -21.5t-50 21.5t-20.5 52.5zM393 1090v79q0 108 56 220q10 29 37.5 40t56.5 1t41 -41t-3 -59t-23.5 -47t-13.5 -37q-7 -26 -7 -85v-71 q0 -31 -21.5 -52.5t-51.5 -21.5t-50.5 21.5t-20.5 52.5z" />
<glyph unicode="&#x201d;" horiz-adv-x="696" d="M127 1071q-12 31 3 59t23.5 47t12.5 37q8 38 8 84v72q0 31 21.5 52.5t51.5 21.5t50 -21.5t20 -52.5v-80q0 -109 -55 -219q-10 -29 -37.5 -40t-56.5 -1t-41 41zM393 1071q-12 31 3 59t23.5 47t12.5 37q8 38 8 84v72q0 31 21.5 52.5t51.5 21.5t50.5 -21.5t20.5 -52.5v-80 q0 -107 -56 -219q-10 -29 -37.5 -40t-56.5 -1t-41 41z" />
<glyph unicode="&#x201e;" horiz-adv-x="696" d="M127 -145.5q-12 30.5 3 58.5t23.5 47.5t12.5 37.5q8 36 8 84v72q0 31 21.5 52t51.5 21t50 -21.5t20 -51.5v-80q0 -111 -55 -219q-10 -29 -37.5 -40.5t-56.5 -0.5q-29 10 -41 40.5zM393 -145.5q-12 30.5 3 58.5t23.5 47.5t12.5 37.5q8 36 8 84v72q0 31 21.5 52t51.5 21 t50.5 -21.5t20.5 -51.5v-80q0 -109 -56 -219q-10 -29 -37.5 -40.5t-56.5 -0.5q-29 10 -41 40.5z" />
<glyph unicode="&#x2022;" horiz-adv-x="966" d="M225 717q0 106 76 182t182 76q108 0 183 -76q75 -77 75 -182q0 -107 -75.5 -182.5t-182.5 -75.5q-105 0 -182 75q-76 75 -76 183z" />
<glyph unicode="&#x2026;" horiz-adv-x="1290" d="M143 74v92q0 31 21.5 52.5t51.5 21.5t50.5 -21.5t20.5 -52.5v-92q0 -31 -20.5 -52.5t-50.5 -21.5t-51.5 22.5t-21.5 51.5zM573 74v92q0 31 21.5 52.5t51.5 21.5t50.5 -21.5t20.5 -52.5v-92q0 -31 -20.5 -52.5t-50.5 -21.5t-51.5 22.5t-21.5 51.5zM1004 74v92 q0 31 21.5 52.5t51 21.5t50 -21.5t20.5 -52.5v-92q0 -31 -20.5 -52.5t-50.5 -21.5t-51 22.5t-21 51.5z" />
<glyph unicode="&#x202f;" horiz-adv-x="381" />
<glyph unicode="&#x2039;" horiz-adv-x="731" d="M102 717q0 74 88 147l246 199q25 20 54.5 17t49 -25.5t15.5 -53t-27 -49.5l-262 -207q-18 -12 -18 -28q0 -17 18 -29l262 -209q23 -18 27 -49t-15 -53.5t-49 -25.5t-55 18l-246 200q-88 73 -88 148z" />
<glyph unicode="&#x203a;" horiz-adv-x="731" d="M176 1001q-4 31 15.5 54t49 25.5t54.5 -17.5l246 -199q88 -73 88 -147q0 -75 -88 -148l-246 -200q-25 -20 -54.5 -17.5t-48.5 25.5t-15.5 53.5t26.5 48.5l262 209q18 12 18 29q0 16 -18 28l-262 207q-23 18 -27 49z" />
<glyph unicode="&#x205f;" horiz-adv-x="477" />
<glyph unicode="&#x20ac;" horiz-adv-x="1333" d="M106 601q0 30 20.5 49.5t49.5 19.5h563q29 0 49.5 -19.5t20.5 -49.5t-20.5 -49.5t-49.5 -19.5h-313q19 -293 224 -382q69 -29 141.5 -29t115.5 6t79 19q58 19 134 85q31 31 60 31t49 -20.5t20 -49t-20 -51.5q-155 -159 -418 -159q-235 0 -377 158q-137 150 -153 392h-105 q-29 0 -49.5 19.5t-20.5 49.5zM106 836q0 29 20.5 48t49.5 19h105q16 241 153 391q142 158 390.5 158t404.5 -160q20 -23 20 -51.5t-20.5 -49t-48.5 -20.5q-29 0 -62 31t-64.5 52.5t-67.5 33.5q-75 25 -170 25t-164.5 -30t-117.5 -84q-96 -109 -108 -296h518 q29 0 49.5 -19.5t20.5 -47.5q0 -29 -20.5 -49.5t-49.5 -20.5h-768q-29 0 -49.5 20.5t-20.5 49.5z" />
<glyph unicode="&#x2122;" horiz-adv-x="1273" d="M119 1374q0 16 11 27.5t28 11.5h346q16 0 26.5 -11t10.5 -28q0 -16 -10.5 -26.5t-26.5 -10.5h-135v-387q0 -16 -11.5 -26.5t-26.5 -10.5t-25.5 10.5t-10.5 26.5v387h-137q-16 0 -27.5 10.5t-11.5 26.5zM543 961l69 397q12 61 64.5 61t68.5 -53l95 -367l96 367 q18 53 68 53t63 -61l70 -397q4 -16 -3.5 -31t-25.5 -19q-35 -8 -45 33l-64 385l-96 -358q-14 -57 -62 -57.5t-65 57.5l-96 356l-64 -383q-10 -40 -47 -33q-16 4 -23 18.5t-3 31.5z" />
<glyph unicode="&#xe000;" horiz-adv-x="1433" d="M0 0v1434h1434v-1434h-1434z" />
<glyph unicode="&#xfb01;" horiz-adv-x="1810" d="M215 74v487q0 86 59.5 145.5t145.5 59.5h610q31 0 52.5 -20.5t21.5 -50.5t-22.5 -51t-51.5 -21h-610q-27 0 -44.5 -17.5t-17.5 -44.5v-487q0 -31 -20.5 -52.5t-50 -21.5t-51 22.5t-21.5 51.5zM215 860v447q0 53 33 90t96 37h723q31 0 52.5 -20.5t21.5 -50.5t-22.5 -51.5 t-51.5 -21.5h-709v-430q0 -31 -20.5 -52.5t-50 -21.5t-51 22.5t-21.5 51.5zM1452 74v1286q0 31 21.5 52.5t51.5 21.5t50 -21.5t20 -52.5v-1286q0 -31 -20.5 -52.5t-50 -21.5t-51 22.5t-21.5 51.5z" />
<glyph unicode="&#xfb02;" horiz-adv-x="2381" d="M215 74v487q0 86 59.5 145.5t145.5 59.5h610q31 0 52.5 -20.5t21.5 -50.5t-22.5 -51t-51.5 -21h-610q-27 0 -44.5 -17.5t-17.5 -44.5v-487q0 -31 -20.5 -52.5t-50 -21.5t-51 22.5t-21.5 51.5zM215 860v447q0 53 33 90t96 37h723q31 0 52.5 -20.5t21.5 -50.5t-22.5 -51.5 t-51.5 -21.5h-709v-430q0 -31 -20.5 -52.5t-50 -21.5t-51 22.5t-21.5 51.5zM1452 127v1233q0 31 21.5 52.5t51.5 21.5t50 -21.5t20 -52.5v-1217h693q29 0 51 -21.5t22 -51t-21.5 -50t-51.5 -20.5h-707q-63 0 -96 37t-33 90z" />
</font>
</defs>
</svg>
